<svg width="3072" height="4669" viewBox="0 0 3072 4669" fill="none" xmlns="http://www.w3.org/2000/svg">
<path d="M1047.5 4627L1048.5 4668.5H2631.5L2622.5 4595L2609.5 4426.5V4267V4110.5L2594 3962.5L2574 3877L2561.5 3803L2556.5 3739.5L2561.5 3696L2569.5 3588V3442H2588.5L2656 3446L2730.5 3442L2781.5 3437L2821.5 3427L2852.5 3418.5L2859 3413L2852.5 3391.5L2835.5 3326L2812 3122.5L2801 2961V2854L2781.5 2682.5L2763.5 2590L2732 2502.5L2687.5 2404L2658.5 2371.5L2595 2326L2522.5 2280L2458.5 2253L2437.5 2233.5L2387 2196L2332.5 2166.5L2236 2132L2185 2115.5L2143 2101.5L2133 2099L2120.5 2094L2103.5 2082L2090 2071.5L2076 2056L2082.5 2083L2076 2097.5L2038.5 2150L1987.5 2196L1906.5 2252.5L1859 2291L1797.5 2318H1783L1740 2303L1693.5 2284L1676 2270.5L1651.5 2252.5L1596.5 2207.5L1535.5 2156L1504.5 2123L1486.5 2089.5L1483 2072.5L1486.5 2052L1440.5 2098.5L1426 2112.5H1421L1376.5 2132L1279.5 2180L1179.5 2234L1105 2270.5L1034.5 2315.5L965.5 2362L939.5 2374.5L905.5 2418L870.5 2469.5L833 2534L813 2580.5L787.5 2652.5L772.5 2766.5L765 2907L735 3063.5L712 3183.5L693 3295L661 3432.5L707 3447L763.5 3459L838.5 3466L943 3470.5L1009.5 3474L1058 3470.5L1089.5 3459L1114.5 3447V3516.5L1119 3573L1103.5 3662.5L1078.5 3786L1061.5 3935L1054 4074L1047.5 4330V4395L1053 4473.5L1047.5 4528V4627Z" fill="#004915"/>
<path d="M732 3492L729 3453.5L812 3464L1006 3473.5L1060 3468L1099 3452L1117 3446.5V3496L1107 3549.5L1088 3598L1107 3640.5L1099 3689.5L1092 3723.5L1079 3788L1075 3827L1067.5 3886.5L1061.5 3937L1059 4002.5L1055 4054.5L1018.5 4024L898 3905L806.5 3809.5L778.5 3774L750 3721L747 3698L750 3670V3631L743 3576L732 3492Z" fill="url(#paint0_linear_604:14)"/>
<path d="M2589 3443.5H2569.5L2568.5 3501.5V3559.5L2567.5 3605L2563.5 3655.5L2559 3709.5L2555.5 3740.5L2558 3768.5L2560.5 3804L2565.5 3832.5L2570 3863.5L2583 3920.5L2593 3902.5L2625.5 3856L2672 3779L2721.5 3706.5L2755 3648.5L2783.5 3597.5L2793.5 3561L2801 3503.5L2809.5 3455L2814.5 3430L2781.5 3438.5L2761 3440.5L2730 3443.5L2722 3444L2684 3446L2656 3447.5L2631 3446L2615 3445L2589 3443.5Z" fill="url(#paint1_linear_604:14)"/>
<path d="M1497 2036.5V2030L1502.5 2007.5L1509.5 1939L1517 1840.5L1518.5 1794.5L1513.5 1761.5L1545 1802L1586.5 1854L1652.5 1897L1746.5 1925L1808.5 1928L1888.5 1922.5L1934 1907L1978.5 1885.5L2041 1812.5L2062.5 1766V1779.5V1809.5L2065 1909L2065.5 1946.5L2066 1980.5L2070 2021.5L2082.5 2084.5L2076 2099L2038.5 2151.5L1987.5 2197.5L1906 2254.5L1859 2299L1797.5 2319.5H1761.5L1693.5 2285.5L1675.5 2271.5L1651.5 2254L1602.5 2214L1535.5 2157.5L1504.5 2124.5L1486.5 2091L1482.5 2072.5L1486.5 2052L1497 2036.5Z" fill="url(#paint2_linear_604:14)"/>
<path d="M1549 1807L1513.5 1761.5L1504 1743.5L1496 1718L1490 1697.5L1484 1651H1479.5L1464 1654.5L1450 1651L1439.5 1645.5L1435.5 1638L1431 1612L1423 1574L1411.5 1542.5L1401 1507.5L1398.5 1469.5V1446.5L1400 1431.5L1405.5 1425L1415 1418L1427.5 1415.5L1425 1407.5L1416.5 1392L1400.5 1341L1393.5 1274L1392.5 1213.5L1391.5 1170L1401 1147.5V1134L1407 1104L1418 1075L1422 1042.5L1429.5 1015.5L1439 987L1464.5 956L1463.5 934.5L1481 925.5L1498 905.5L1514 892.5L1510 883L1526.5 880L1535.5 853.5L1550 845L1552 814.5L1572.5 802.5L1570 788.5L1591.5 787.5L1604.5 774L1611 758.5L1627 757L1637.5 755L1650 743.5V734L1672 731.5L1673.5 719.5H1693L1709.5 707L1731 709L1728 700.5L1743 707L1751 697L1776 703L1777.5 697L1797.5 705.5L1821.5 697L1838.5 713.5L1849.5 710L1867.5 720L1885.5 732L1899 731L1928.5 755.5L1956.5 760L1966.5 787.5L1985 797.5L1996.5 820L2009.5 852.5L2032.5 850.5L2041.5 882L2055.5 883L2067 906L2077.5 918.5L2092 930.5L2116.5 964L2134 1008L2147.5 1051.5L2160 1100.5L2175 1165L2178 1197L2179.5 1239.5L2178.5 1292L2172 1332L2165 1360L2156 1383L2153 1402.5L2158.5 1401.5H2165L2173.5 1404.5L2180 1413.5L2183.5 1430L2181.5 1444L2175.5 1472.5L2173 1502.5L2167 1533.5L2157 1571V1594L2156 1607L2157 1613V1622.5L2151 1631L2141 1634.5L2121 1632L2104.5 1625L2098 1660.5L2093.5 1689.5L2080.5 1727L2062.5 1766L2041 1812.5L1978.5 1885.5L1934 1907L1888.5 1922.5L1808.5 1928L1746.5 1925L1652.5 1897L1586.5 1854L1549 1807Z" fill="url(#paint3_linear_604:14)"/>
<path d="M2133.5 1481L2118 1524L2112.5 1533.5L2116 1513.5L2124.5 1440.5L2121 1365L2124 1256L2118.5 1186.5L2111.5 1113L2110.5 1078L2089.5 993.5L2073.5 960.5L2048.5 925.5L2003 887L1965 862.5L1926 850.5L1872 843L1832.5 837.5L1782 833.5L1732 837.5L1689.5 844.5L1643.5 858.5L1604.5 874L1564.5 899.5L1528.5 932L1506 963L1482 1005L1461.5 1059.5L1447.5 1116L1450 1164L1446 1211L1453 1284L1463 1372L1467 1485L1469 1535H1461.5L1451.5 1496L1444 1458L1435 1429L1427.5 1415.5L1424.5 1407L1416.5 1392L1400.5 1341L1393.5 1273.5L1391.5 1170L1401 1147.5V1134L1407 1104L1418 1075L1422 1042.5L1429 1017L1439 987L1464.5 956L1463.5 934.5L1481 925.5L1498 905.5L1514 892.5L1510 883L1526.5 880L1528.5 874L1535.5 853.5L1550 845L1552 814.5L1572.5 802.5L1570 788.5L1591.5 787.5L1604.5 774L1611 758.5L1627 757L1637.5 755L1650 743.5V734L1672 731.5L1673.5 719.5H1693L1709.5 707L1731 709L1728 700.5L1743 707L1751 697L1776 703L1777.5 697L1797.5 705.5L1821.5 697L1838.5 713.5L1849.5 710L1867.5 720L1885.5 732L1899 731L1928.5 755.5L1956.5 760L1966.5 787.5L1985 797.5L1996.5 820L2009.5 852.5L2032.5 850.5L2041.5 882L2055.5 883L2058 888L2062 896L2064 900L2067 906L2069.5 909L2077.5 918.5L2080.5 921L2092 930.5L2093.5 932.5L2103 945.5L2111 956.5L2116.5 964L2119.5 971.5L2129 995.5L2131 1000.5L2134 1008L2136.5 1016L2147.5 1051.5L2149 1057.5L2160 1100.5L2175 1165L2178 1197L2179 1225L2179.5 1239.5L2179 1266L2178.5 1292L2177 1301L2175 1313.5L2172 1332L2167 1352L2165 1360L2164 1362.5L2159.5 1374L2156 1383L2153 1402.5L2143.5 1436.5L2133.5 1481Z" fill="#3E2A0E"/>
<path d="M1488.5 1269.5L1494 1253L1500.81 1235.01L1531 1200L1561 1185.5L1596.5 1179L1629.5 1174L1677 1177L1709 1189.5L1723.5 1208L1715.5 1221.5L1683 1227L1647 1230L1607.5 1227L1562.5 1236.5L1529 1248L1509.5 1269.5L1491 1289.5L1488.5 1269.5Z" fill="#3E2A0E"/>
<path d="M1881.5 1182.5L1904 1170L1939.5 1165L1981.5 1162L2025.5 1167.5L2064.5 1194L2086.5 1225L2093 1270L2084.5 1275.5L2071 1249L2049.5 1232L2023.5 1213.5L1978 1207.5H1946.5L1907 1213.5L1875.5 1221.5L1867 1213.5L1865 1204L1881.5 1182.5Z" fill="#3E2A0E"/>
<path d="M1469 1534.5L1463 1536.5L1475 1592L1484 1651L1490 1697.5L1492 1704.5L1504 1743.5L1513.5 1761.5L1526 1778L1553 1812.5L1586.5 1854L1652.5 1897L1746.5 1925L1808.5 1928L1888.5 1922.5L1934 1907L1978.5 1885.5L2041 1812.5L2062.5 1766L2080.5 1727.5L2093 1689.5L2104.5 1625L2108.5 1583L2113 1533L2102.5 1551.5L2088.5 1561L2079 1580.5V1610L2069 1635L2042.5 1619L2024.5 1649L2017.5 1683.5L2001 1724.5L1970.5 1754.5V1792.5L1948.5 1842.5H1922.5L1886 1840L1852 1834.5L1815 1820.5L1806.5 1802L1804.5 1789L1832.5 1771L1844.5 1744L1832.5 1730.5L1811.5 1733L1774 1738L1737.5 1730.5L1708 1744L1717.5 1763L1762 1784L1786 1792.5L1780.5 1823.5H1753.5L1696 1827L1649 1802L1635.5 1789L1616 1771L1575 1746.5L1571 1717L1556 1685.5L1548 1666.5L1539.5 1624.5L1523.5 1598.5L1509.5 1616.5L1500 1624.5L1492 1608L1480.5 1584L1469 1534.5Z" fill="#3E2A0E" fill-opacity="0.3"/>
<path d="M1587 1597L1599.5 1581L1616 1572.5L1658 1548L1679.5 1534.5L1714.5 1522.5L1743 1519.5L1773.5 1522.5L1786.5 1529.5L1798.5 1526L1822 1519.5H1854L1887 1526L1915 1536L1948.5 1551.5L1976.5 1580.5L1987 1603.5L1982.5 1622L1951 1611.5L1907.5 1597L1868.5 1581L1828.5 1572.5L1796 1570H1771H1737.5L1704 1577L1665 1594L1625.5 1611L1587 1628.5L1578 1624.5L1587 1597Z" fill="#3E2A0E" fill-opacity="0.3"/>
<path d="M2180.09 2783.61V2829.8C2180.09 2835.08 2178.9 2839.7 2176.53 2843.67C2174.18 2847.64 2170.78 2850.69 2166.32 2852.8C2161.86 2854.92 2156.59 2855.98 2150.5 2855.98C2141.32 2855.98 2134.19 2853.63 2129.11 2848.95C2124.04 2844.23 2121.5 2837.78 2121.5 2829.61V2783.61H2136.58V2827.31C2136.58 2832.82 2137.69 2836.85 2139.9 2839.42C2142.12 2842 2145.78 2843.28 2150.89 2843.28C2155.84 2843.28 2159.42 2842 2161.63 2839.42C2163.88 2836.82 2165 2832.75 2165 2827.22V2783.61H2180.09ZM2241.27 2855L2236.1 2838.01H2210.07L2204.89 2855H2188.59L2213.78 2783.32H2232.29L2257.58 2855H2241.27ZM2232.48 2825.31C2227.7 2809.92 2225 2801.21 2224.38 2799.19C2223.79 2797.17 2223.37 2795.58 2223.11 2794.4C2222.03 2798.57 2218.96 2808.87 2213.88 2825.31H2232.48Z" fill="white"/>
<path fill-rule="evenodd" clip-rule="evenodd" d="M1445.72 1287.92L1438.42 1273.07L1427.12 1258.8L1426.79 1242.3L1437.7 1238.08L1460.47 1226.61L1504.24 1214.71L1561.12 1208.54L1624.11 1207.26L1681.7 1211.08L1731.92 1221.05L1749.53 1226.7L1784.53 1225.98L1824.02 1225.17L1870.27 1212.72L1941.54 1200.76L2025.03 1199.05L2065.62 1203.23L2110.34 1213.31L2139.06 1223.73L2139.56 1248.22L2126.68 1254.49L2122.97 1268.57L2123.91 1314.56L2113.24 1355.28L2100.98 1367.04L2069.2 1378.19L2021.81 1384.16L1983.82 1384.94L1945.33 1385.72L1901.74 1381.61L1858.41 1366L1840.97 1344.85L1822.06 1300.73L1811.03 1274.95L1803.84 1265.59L1791.25 1261.35L1771.35 1266.26L1761.96 1271.95L1753.53 1299.63L1730.6 1352.11L1719.44 1368.84L1705.56 1375.13L1669.28 1386.37L1612.4 1392.53L1564.98 1397.01L1517.92 1394.47L1477.69 1383.79L1458.28 1363.68L1453.89 1344.77L1448.47 1324.37L1446.09 1305.92L1445.72 1287.92ZM1832.07 1252.01L1832.34 1265.51L1834.71 1283.46L1839.11 1302.88L1846.04 1323.74L1857.48 1345.51L1867.23 1357.32L1882.37 1364.01L1914.03 1371.36L1939.55 1372.34L1975.1 1374.61L2016.1 1373.77L2049.06 1371.6L2070.96 1366.65L2089.32 1359.77L2100.62 1349.54L2105.43 1340.44L2110.02 1320.34L2112.49 1294.29L2112.01 1270.79L2111.59 1250.29L2108.31 1236.86L2099.58 1225.54L2082.41 1217.38L2066.83 1213.7L2040.27 1210.75L2006.23 1209.44L1957.71 1208.93L1916.79 1213.27L1882.92 1219.97L1860.56 1226.92L1846.66 1232.21L1837.79 1238.39L1832.07 1252.01ZM1463.51 1253.05L1460.24 1264.12L1460.95 1299.11L1461.46 1324.11L1469.12 1355.96L1477.93 1371.28L1501.14 1381.31L1524.72 1384.83L1562.27 1387.06L1636.11 1378.55L1681.46 1370.62L1704.3 1362.65L1717.07 1350.89L1725.73 1334.2L1734.13 1305.03L1740.03 1275.4L1739.75 1261.9L1736.45 1247.47L1732.32 1241.05L1721.68 1234.27L1696.48 1224.78L1670.41 1221.31L1630.31 1217.13L1566.82 1218.43L1515.95 1224.97L1488.08 1231.54L1475.18 1236.81L1467.81 1242.96L1463.51 1253.05Z" fill="black"/>
<defs>
<linearGradient id="paint0_linear_604:14" x1="2858" y1="3556.5" x2="729" y2="3585" gradientUnits="userSpaceOnUse">
<stop stop-color="#CB9A80"/>
<stop offset="1" stop-color="#D9A78B"/>
</linearGradient>
<linearGradient id="paint1_linear_604:14" x1="2858" y1="3556.5" x2="729" y2="3585" gradientUnits="userSpaceOnUse">
<stop stop-color="#CB9A80"/>
<stop offset="1" stop-color="#D9A78B"/>
</linearGradient>
<linearGradient id="paint2_linear_604:14" x1="2083" y1="1946" x2="1483" y2="1941" gradientUnits="userSpaceOnUse">
<stop stop-color="#CB9A80"/>
<stop offset="1" stop-color="#D9A78B"/>
</linearGradient>
<linearGradient id="paint3_linear_604:14" x1="1392" y1="1464" x2="2220.5" y2="1459" gradientUnits="userSpaceOnUse">
<stop offset="0.572917" stop-color="#D9A78B"/>
<stop offset="1" stop-color="#CB9A80"/>
</linearGradient>
</defs>
</svg>
