<svg width="3072" height="4669" viewBox="0 0 3072 4669" fill="none" xmlns="http://www.w3.org/2000/svg">
<path d="M1047.5 4627L1048.5 4668.5H2631.5L2622.5 4595L2609.5 4426.5V4267V4110.5L2594 3962.5L2574 3877L2561.5 3803L2556.5 3739.5L2561.5 3696L2569.5 3588V3442H2588.5L2656 3446L2730.5 3442L2781.5 3437L2821.5 3427L2852.5 3418.5L2859 3413L2852.5 3391.5L2835.5 3326L2812 3122.5L2801 2961V2854L2781.5 2682.5L2763.5 2590L2732 2502.5L2687.5 2404L2658.5 2371.5L2595 2326L2522.5 2280L2458.5 2253L2437.5 2233.5L2387 2196L2332.5 2166.5L2215 2115.5L2173.5 2106L2143 2101.5L2136.5 2089.5L2127.5 2083L2119.5 2064L2111 2035L2102.5 2024L2082.5 2020H2070L2082.5 2083L2076 2097.5L2038.5 2150L1987.5 2196L1906.5 2252.5L1848 2284L1797.5 2318L1789 2308.5L1759.5 2296L1737 2291L1693.5 2284L1676 2270.5L1651.5 2252.5L1596.5 2207.5L1535.5 2156L1504.5 2123L1486.5 2089.5L1482.5 2071L1486.5 2050.5L1497 2035V2028.5L1482.5 2040L1440.5 2098.5L1426 2112.5H1421L1376.5 2132L1279.5 2180L1179.5 2234L1105 2270.5L1034.5 2315.5L965.5 2362L939.5 2374.5L905.5 2418L870.5 2469.5L833 2534L813 2580.5L787.5 2652.5L772.5 2766.5L765 2907L735 3063.5L712 3183.5L693 3295L661 3432.5L707 3447L763.5 3459L838.5 3466L943 3470.5L1009.5 3474L1058 3470.5L1089.5 3459L1114.5 3447V3516.5L1119 3573L1103.5 3662.5L1078.5 3786L1061.5 3935L1054 4074L1047.5 4330V4395L1053 4473.5L1047.5 4528V4627Z" fill="black"/>
<path d="M732 3492L729 3453.5L812 3464L1006 3473.5L1060 3468L1099 3452L1117 3446.5V3496L1107 3549.5L1088 3598L1107 3640.5L1099 3689.5L1092 3723.5L1079 3788L1075 3827L1067.5 3886.5L1061.5 3937L1059 4002.5L1055 4054.5L1018.5 4024L898 3905L806.5 3809.5L778.5 3774L750 3721L747 3698L750 3670V3631L743 3576L732 3492Z" fill="url(#paint0_linear_604:11)"/>
<path d="M2589 3443.5H2569.5L2568.5 3501.5V3559.5L2567.5 3605L2563.5 3655.5L2559 3709.5L2555.5 3740.5L2558 3768.5L2560.5 3804L2565.5 3832.5L2570 3863.5L2583 3920.5L2593 3902.5L2625.5 3856L2672 3779L2721.5 3706.5L2755 3648.5L2783.5 3597.5L2793.5 3561L2801 3503.5L2809.5 3455L2814.5 3430L2781.5 3438.5L2761 3440.5L2730 3443.5L2722 3444L2684 3446L2656 3447.5L2631 3446L2615 3445L2589 3443.5Z" fill="url(#paint1_linear_604:11)"/>
<path d="M1497 2036.5V2030L1502.5 2007.5L1509.5 1939L1517 1840.5L1518.5 1794.5L1513.5 1761.5L1545 1802L1586.5 1854L1652.5 1897L1746.5 1925L1808.5 1928L1888.5 1922.5L1934 1907L1978.5 1885.5L2041 1812.5L2062.5 1766V1779.5V1809.5L2065 1909L2065.5 1946.5L2066 1980.5L2070 2021.5L2082.5 2084.5L2076 2099L2038.5 2151.5L1987.5 2197.5L1906 2254.5L1849 2285L1797.5 2319.5L1789 2310L1760 2297.5L1737 2292.5L1693.5 2285.5L1675.5 2271.5L1651.5 2254L1602.5 2214L1535.5 2157.5L1504.5 2124.5L1486.5 2091L1482.5 2072.5L1486.5 2052L1497 2036.5Z" fill="url(#paint2_linear_604:11)"/>
<path d="M1549 1807L1513.5 1761.5L1504 1743.5L1496 1718L1490 1697.5L1484 1651H1479.5L1464 1654.5L1450 1651L1439.5 1645.5L1435.5 1638L1431 1612L1423 1574L1411.5 1542.5L1401 1507.5L1398.5 1469.5V1446.5L1400 1431.5L1405.5 1425L1415 1418L1427.5 1415.5L1425 1407.5L1416.5 1392L1400.5 1341L1393.5 1274L1392.5 1213.5L1391.5 1170L1401 1147.5V1134L1407 1104L1418 1075L1422 1042.5L1429.5 1015.5L1439 987L1464.5 956L1463.5 934.5L1481 925.5L1498 905.5L1514 892.5L1510 883L1526.5 880L1535.5 853.5L1550 845L1552 814.5L1572.5 802.5L1570 788.5L1591.5 787.5L1604.5 774L1611 758.5L1627 757L1637.5 755L1650 743.5V734L1672 731.5L1673.5 719.5H1693L1709.5 707L1731 709L1728 700.5L1743 707L1751 697L1776 703L1777.5 697L1797.5 705.5L1821.5 697L1838.5 713.5L1849.5 710L1867.5 720L1885.5 732L1899 731L1928.5 755.5L1956.5 760L1966.5 787.5L1985 797.5L1996.5 820L2009.5 852.5L2032.5 850.5L2041.5 882L2055.5 883L2067 906L2077.5 918.5L2092 930.5L2116.5 964L2134 1008L2147.5 1051.5L2160 1100.5L2175 1165L2178 1197L2179.5 1239.5L2178.5 1292L2172 1332L2165 1360L2156 1383L2153 1402.5L2158.5 1401.5H2165L2173.5 1404.5L2180 1413.5L2183.5 1430L2181.5 1444L2175.5 1472.5L2173 1502.5L2167 1533.5L2157 1571V1594L2156 1607L2157 1613V1622.5L2151 1631L2141 1634.5L2121 1632L2104.5 1625L2098 1660.5L2093.5 1689.5L2080.5 1727L2062.5 1766L2041 1812.5L1978.5 1885.5L1934 1907L1888.5 1922.5L1808.5 1928L1746.5 1925L1652.5 1897L1586.5 1854L1549 1807Z" fill="url(#paint3_linear_604:11)"/>
<path d="M2133.5 1481L2118 1524L2112.5 1533.5L2116 1513.5L2124.5 1440.5L2121 1365L2124 1256L2118.5 1186.5L2111.5 1113L2110.5 1078L2089.5 993.5L2073.5 960.5L2048.5 925.5L2003 887L1965 862.5L1926 850.5L1872 843L1832.5 837.5L1782 833.5L1732 837.5L1689.5 844.5L1643.5 858.5L1604.5 874L1564.5 899.5L1528.5 932L1506 963L1482 1005L1461.5 1059.5L1447.5 1116L1450 1164L1446 1211L1453 1284L1463 1372L1467 1485L1469 1535H1461.5L1451.5 1496L1444 1458L1435 1429L1427.5 1415.5L1424.5 1407L1416.5 1392L1400.5 1341L1393.5 1273.5L1391.5 1170L1401 1147.5V1134L1407 1104L1418 1075L1422 1042.5L1429 1017L1439 987L1464.5 956L1463.5 934.5L1481 925.5L1498 905.5L1514 892.5L1510 883L1526.5 880L1528.5 874L1535.5 853.5L1550 845L1552 814.5L1572.5 802.5L1570 788.5L1591.5 787.5L1604.5 774L1611 758.5L1627 757L1637.5 755L1650 743.5V734L1672 731.5L1673.5 719.5H1693L1709.5 707L1731 709L1728 700.5L1743 707L1751 697L1776 703L1777.5 697L1797.5 705.5L1821.5 697L1838.5 713.5L1849.5 710L1867.5 720L1885.5 732L1899 731L1928.5 755.5L1956.5 760L1966.5 787.5L1985 797.5L1996.5 820L2009.5 852.5L2032.5 850.5L2041.5 882L2055.5 883L2058 888L2062 896L2064 900L2067 906L2069.5 909L2077.5 918.5L2080.5 921L2092 930.5L2093.5 932.5L2103 945.5L2111 956.5L2116.5 964L2119.5 971.5L2129 995.5L2131 1000.5L2134 1008L2136.5 1016L2147.5 1051.5L2149 1057.5L2160 1100.5L2175 1165L2178 1197L2179 1225L2179.5 1239.5L2179 1266L2178.5 1292L2177 1301L2175 1313.5L2172 1332L2167 1352L2165 1360L2164 1362.5L2159.5 1374L2156 1383L2153 1402.5L2143.5 1436.5L2133.5 1481Z" fill="#3E2A0E"/>
<path d="M1488.5 1269.5L1494 1253L1500.81 1235.01L1531 1200L1561 1185.5L1596.5 1179L1629.5 1174L1677 1177L1709 1189.5L1723.5 1208L1715.5 1221.5L1683 1227L1647 1230L1607.5 1227L1562.5 1236.5L1529 1248L1509.5 1269.5L1491 1289.5L1488.5 1269.5Z" fill="#3E2A0E"/>
<path d="M1881.5 1182.5L1904 1170L1939.5 1165L1981.5 1162L2025.5 1167.5L2064.5 1194L2086.5 1225L2093 1270L2084.5 1275.5L2071 1249L2049.5 1232L2023.5 1213.5L1978 1207.5H1946.5L1907 1213.5L1875.5 1221.5L1867 1213.5L1865 1204L1881.5 1182.5Z" fill="#3E2A0E"/>
<path d="M1469 1534.5L1463 1536.5L1475 1592L1484 1651L1490 1697.5L1492 1704.5L1504 1743.5L1513.5 1761.5L1526 1778L1553 1812.5L1586.5 1854L1652.5 1897L1746.5 1925L1808.5 1928L1888.5 1922.5L1934 1907L1978.5 1885.5L2041 1812.5L2062.5 1766L2080.5 1727.5L2093 1689.5L2104.5 1625L2108.5 1583L2113 1533L2102.5 1551.5L2088.5 1561L2079 1580.5V1610L2069 1635L2042.5 1619L2024.5 1649L2017.5 1683.5L2001 1724.5L1970.5 1754.5V1792.5L1948.5 1842.5H1922.5L1886 1840L1852 1834.5L1815 1820.5L1806.5 1802L1804.5 1789L1832.5 1771L1844.5 1744L1832.5 1730.5L1811.5 1733L1774 1738L1737.5 1730.5L1708 1744L1717.5 1763L1762 1784L1786 1792.5L1780.5 1823.5H1753.5L1696 1827L1649 1802L1635.5 1789L1616 1771L1575 1746.5L1571 1717L1556 1685.5L1548 1666.5L1539.5 1624.5L1523.5 1598.5L1509.5 1616.5L1500 1624.5L1492 1608L1480.5 1584L1469 1534.5Z" fill="#3E2A0E" fill-opacity="0.3"/>
<path d="M1587 1597L1599.5 1581L1616 1572.5L1658 1548L1679.5 1534.5L1714.5 1522.5L1743 1519.5L1773.5 1522.5L1786.5 1529.5L1798.5 1526L1822 1519.5H1854L1887 1526L1915 1536L1948.5 1551.5L1976.5 1580.5L1987 1603.5L1982.5 1622L1951 1611.5L1907.5 1597L1868.5 1581L1828.5 1572.5L1796 1570H1771H1737.5L1704 1577L1665 1594L1625.5 1611L1587 1628.5L1578 1624.5L1587 1597Z" fill="#3E2A0E" fill-opacity="0.3"/>
<path fill-rule="evenodd" clip-rule="evenodd" d="M1497 2036.5V2030L1482.5 2041.5L1465.5 2065.5L1453 2082.5L1441.5 2098.5L1440 2105.5L1436.5 2113.5L1437.5 2128L1439.5 2138.5L1446 2153L1458.5 2174L1490 2210L1514 2235L1548.5 2266L1578.5 2288.5L1617.5 2317.5L1653.5 2338.5L1660.5 2341L1688.5 2339.5L1715 2337.5L1734 2335.5L1747.5 2330L1761 2325.5L1789 2319.5L1798.5 2320.5L1803.5 2323L1811.5 2330L1818.5 2339.5L1828.5 2369L1841 2410L1851.5 2446.5L1870 2494.5L1885.5 2533L1895 2549.5V2524.5L1898 2489L1897 2447.5L1898 2406L1897 2383.5V2370L1899.5 2361L1902 2341.5L1916.5 2333L1941.5 2324.5L1964.5 2310.5L1999.5 2288.5L2028.5 2264.5L2057.5 2237.5L2076.5 2217L2097 2188L2113 2160L2130 2124.5L2136 2106L2136.5 2091L2127.5 2084.5L2119.5 2065L2111 2036.5L2102.5 2025.5L2082.5 2021.5H2070L2074 2041.5L2082.5 2084.5L2075.5 2099L2037.5 2151.5L1987.5 2197L1946 2226.5L1906 2254.5L1849 2285L1797.5 2319.5L1789 2310L1759.5 2297.5L1737 2292.5L1693.5 2285.5L1647 2250.5L1590 2203.5L1535.5 2157.5L1504.5 2124.5L1486.5 2091L1482.5 2072.5L1486.5 2052L1497 2036.5ZM686 3326.5L711.5 3334.5L745 3346.5L785 3357.5L817.5 3365L856 3375.5L866.5 3384L870 3393.5V3410.5L866.5 3438.5L863 3466.5L883.5 3467.5L914 3469L955 3471L1006 3473.5L1060 3468L1099 3452L1117 3446.5L1117.5 3415.5L1112 3386L1104 3339L1101 3299.5L1099 3254.5L1101 3220.5L1078.5 3149L1047 3078.5L1035.5 3047L1024.5 2981.5L1009 2892.5L1005 2811.5L995.5 2689L987 2607L968.5 2518L959.5 2454.5L941.5 2394.5L939.5 2376L905.5 2419.5L870.5 2471L856 2496L833 2535.5L814.5 2578.5L802 2613L787.5 2654L776.5 2737.5L772.5 2768L769 2831.5L765.5 2899.5L765 2909L760.5 2931.5L772.5 2944.5L791 2958L803.5 2965L808.5 2970L808 2973.5H802.5L790.5 2970L779 2969.5L769.5 2968.5L762.5 2964L758 2965L754.5 2963.5L754 2966L751.5 2979L746 3008L741.5 3031L737.5 3052L732 3080.5L727.5 3104L723 3127.5L718 3153.5L713 3179.5L710.5 3193.5L706.5 3217.5L702.5 3240.5L698 3267L694 3290.5L693 3296.5L688.5 3315.5L686 3326.5ZM2835.5 3327.5L2800.5 3334.5L2757 3344L2749.5 3349L2742.5 3360.5L2740.5 3371V3382L2744.5 3401L2749.5 3421L2756 3441L2730 3443.5L2655.5 3447.5L2588.5 3443.5H2569.5L2573.5 3381L2578.5 3289L2586.5 3213L2592 3131L2595.5 3041.5L2599 2964.5V2889L2603 2823L2645 2722.5L2670 2653L2680 2617L2689 2565.5L2694 2519.5L2693 2474L2687.5 2440L2680 2414.5L2675.5 2400L2671.5 2387.5L2679 2396L2687.5 2405.5L2728.5 2496.5L2732 2504L2745 2540L2749 2551L2763.5 2591.5L2772.5 2638L2781 2681.5L2781.5 2683.5L2784.5 2711L2788 2740L2790 2757.5L2795.5 2806.5L2801 2855.5V2962.5L2804 3008L2806 3037.5L2809 3081L2797.5 3094.5L2783 3103L2769.5 3114.5L2767 3119.5L2769.5 3125H2776L2787 3123L2797.5 3118L2809 3113L2811 3110L2811.5 3116.5L2812 3124L2816 3159L2820.5 3197L2826 3244.5L2831 3289.5L2835.5 3327.5Z" fill="#D9D9D9"/>
<path fill-rule="evenodd" clip-rule="evenodd" d="M2306.15 2594.34H2313.13L2310.64 2588.36L2302.16 2582.38H2293.68L2290.69 2590.85L2293.68 2602.82H2289.2V2596.84L2280.22 2594.34V2602.82L2289.2 2610.3H2299.67L2302.16 2604.82L2299.67 2591.35L2302.16 2588.36L2306.15 2594.34ZM2271.74 2596.84V2562.93L2263.77 2560.44L2238.34 2582.38L2245.32 2585.87L2250.8 2582.38L2263.77 2588.36V2594.34L2271.74 2596.84ZM2202.44 2576.89L2207.42 2547.47H2218.39L2228.86 2555.95L2234.35 2565.42L2228.86 2576.89L2215.9 2579.39L2202.44 2576.89ZM2182.99 2544.98H2173.52L2175.51 2576.89H2194.96V2568.42H2182.99V2544.98ZM2143.6 2549.47L2167.03 2576.89L2160.05 2579.39L2153.57 2574.9L2143.6 2576.89V2582.38L2133.13 2585.87C2134.29 2573.73 2136.52 2549.47 2136.12 2549.47H2143.6ZM2117.17 2560.44L2114.18 2565.42L2104.7 2562.93L2098.22 2565.42V2574.9L2104.7 2582.38L2112.68 2583.87L2119.16 2576.89L2125.15 2579.39L2121.66 2590.85L2108.69 2594.34L2094.23 2585.87L2088.25 2570.41L2094.23 2558.44L2108.69 2555.95L2117.17 2560.44ZM2024.92 2691.58L2027.42 2698.06L2040.38 2700.55L2030.41 2708.53V2718.5L2022.43 2711.52L2013.46 2718.5L2016.95 2708.53C2015.12 2705.87 2011.36 2700.55 2010.96 2700.55H2022.43L2024.92 2691.58ZM2360.5 2713.52V2704.04L2367.48 2713.52L2381.44 2711.52L2369.97 2718.5L2374.96 2729.97L2363.99 2722.99L2357.01 2729.97L2360.5 2720.5L2350.03 2718.5L2360.5 2713.52ZM2312.63 2859.61L2323.1 2849.14L2318.12 2845.65L2312.63 2849.14L2310.64 2845.65L2315.62 2841.66L2310.64 2838.17L2305.15 2841.66L2302.16 2838.17L2310.64 2832.69L2305.15 2827.2L2293.68 2838.17L2312.63 2859.61ZM2282.22 2843.66L2273.74 2849.14L2289.2 2874.07L2299.67 2867.59V2859.61L2293.68 2852.13H2289.2V2845.65L2282.22 2843.66ZM2275.73 2870.58L2267.76 2852.13L2263.27 2854.63L2267.76 2870.58V2876.07L2263.27 2874.07L2256.29 2857.12H2250.3L2261.27 2878.06L2270.75 2881.05L2275.73 2878.06V2870.58ZM2238.34 2859.61L2244.32 2881.05L2250.3 2878.06L2252.8 2885.04L2240.33 2887.54L2233.35 2859.61H2238.34ZM2224.38 2870.58L2229.86 2864.1L2219.39 2859.61H2209.91L2199.94 2870.58L2203.93 2885.04L2216.9 2891.53L2229.86 2885.04L2226.37 2878.06L2216.9 2885.04L2209.91 2878.06V2870.58L2216.9 2867.59L2224.38 2870.58ZM2182.99 2861.61L2167.53 2859.61V2864.1H2170.52L2167.53 2887.54H2173.52L2176.51 2867.59H2182.99V2861.61ZM2137.61 2881.05L2144.59 2854.63H2154.57L2160.05 2859.61V2867.59L2154.57 2870.58L2157.06 2885.04H2150.58L2147.09 2874.07L2144.59 2883.05L2137.61 2881.05ZM2133.62 2849.14L2135.62 2854.63L2133.62 2867.59L2122.66 2870.58L2110.69 2867.59L2105.7 2857.12L2110.69 2845.65L2122.66 2841.66L2133.62 2849.14ZM2095.73 2827.2L2105.7 2832.69L2107.7 2841.66L2098.72 2845.65L2091.74 2843.66L2083.26 2852.13L2077.28 2849.14L2095.73 2827.2ZM2087.25 2823.71H2080.77V2827.2C2081.77 2830.2 2082.17 2836.38 2075.78 2837.18C2069.4 2837.97 2063.15 2834.52 2060.83 2832.69C2059.5 2830.86 2057.63 2827.2 2060.83 2827.2C2064.02 2827.2 2067.47 2830.86 2068.8 2832.69L2071.8 2823.71L2075.78 2813.74H2085.26L2087.25 2823.71ZM2335.07 2759.89L2341.05 2732.96V2706.54L2335.07 2682.1L2323.1 2661.66L2310.64 2638.22L2290.69 2618.28L2270.25 2603.82L2247.81 2591.35L2216.9 2583.87L2194.96 2582.38L2167.03 2585.87L2140.61 2590.85L2112.68 2599.33L2091.74 2612.79L2077.28 2624.76L2065.81 2644.71L2052.85 2676.12L2047.36 2704.04L2050.35 2732.96L2060.83 2766.37L2077.28 2789.81L2104.7 2817.23L2132.13 2835.68L2160.05 2843.66L2191.47 2849.14H2224.38L2250.8 2843.66L2282.22 2829.7L2302.16 2813.74L2323.1 2787.81L2335.07 2759.89ZM2211.22 2571.5L2214.21 2557L2224.66 2559V2567L2221.18 2571.5H2211.22ZM2264 2578V2571.5L2258.03 2576L2264 2578ZM2148.98 2567L2144 2563V2568.5L2148.98 2567Z" fill="#D9D9D9"/>
<path d="M2376.17 2651.31L2359.9 2622.86L2347.08 2608.64L2306.15 2576.75L2254.38 2548.79L2202.11 2538L2161.19 2541.43H2130.62L2093.15 2548.79L2056.17 2576.75L2026.58 2618.45L2005.88 2658.67L1997 2698.9V2742.56L2005.88 2777.87L2037.43 2828.89L2077.37 2860.78L2113.36 2878.93L2161.19 2896.09L2210.99 2901L2248.46 2896.09L2299.25 2878.93L2322.42 2860.78L2359.9 2822.51L2379.62 2783.76L2388 2738.63V2715.09V2689.09L2376.17 2651.31Z" stroke="#F0F0F0" stroke-width="2"/>
<path d="M2198.65 2708L2191 2717H2200L2192.8 2708H2195.5" stroke="black"/>
<path d="M2199 2743L2190 2751.42L2196.75 2748.79L2199 2753L2192.25 2743H2196.75" stroke="black"/>
<path d="M2149.04 2722.56L2139.94 2710L2141.38 2718.21L2139.94 2724.49L2135.63 2722.56L2127.49 2714.83L2121.27 2710H2117.92L2125.58 2724.49L2127.49 2731.25L2125.58 2739.46V2740.91L2121.27 2733.66L2124.14 2731.25L2119.35 2733.66L2116 2752.5L2117.92 2774.23L2123.18 2775.2L2121.27 2762.64L2119.35 2770.37L2124.14 2758.3L2139.94 2754.91M2139.94 2754.91V2746.7M2139.94 2754.91H2149.04L2152.87 2770.37L2166.27 2784.86L2181.59 2791.62L2195 2795M2139.94 2746.7V2745.26L2125.58 2743.81H2144.25L2149.04 2735.11L2144.25 2745.26L2139.94 2746.7Z" stroke="black"/>
<path d="M2194 2824L2177.58 2821.06L2161.64 2816.65L2154.88 2810.76L2138.46 2797.53L2128.8 2782.82L2123 2774" stroke="black"/>
<path fill-rule="evenodd" clip-rule="evenodd" d="M2242.14 2657.35L2235.26 2654.4H2229.37L2232.32 2649.49L2229.37 2644.58C2220.53 2643.6 2202.75 2641.93 2202.35 2643.1V2650.96L2193.51 2654.4L2195.47 2647.53L2191.55 2643.1H2166L2161.58 2649.49L2167.47 2655.39L2156.18 2654.4L2154.7 2644.58L2148.32 2637.7L2129.16 2609.21H2141.44L2149.79 2616.09L2156.18 2612.65V2605.28L2166 2599.88L2176.32 2602.33L2178.77 2612.65L2184.67 2609.21L2187.12 2605.28L2191.55 2599.88H2205.79L2210.21 2610.19L2217.09 2612.65L2220.53 2603.81L2235.26 2602.33L2240.67 2609.21L2237.72 2616.09L2242.14 2620.02H2249.02L2251.48 2612.65L2266.21 2616.09L2264.25 2622.47L2251.48 2636.23V2644.58H2246.56L2242.14 2657.35ZM2229.37 2657.35V2666.68H2205.79V2657.35H2229.37ZM2126.21 2666.68L2129.16 2662.75L2136.53 2670.61L2134.07 2682.4L2141.44 2677L2145.37 2682.4V2699.6L2134.07 2704.02H2117.86L2112.46 2696.65V2682.4L2117.86 2674.54L2126.21 2677V2666.68ZM2098.21 2836.16H2093.79L2098.21 2829.28L2100.18 2834.19L2098.21 2836.16ZM2280.95 2846.47H2278L2280.95 2850.4V2846.47ZM2288.81 2854.82H2285.86L2284.39 2856.79L2285.86 2859.74L2288.81 2857.77V2854.82ZM2148.32 2856.79H2151.76V2859.74H2148.32V2856.79ZM2124.25 2846.47H2119.83H2112.46V2854.82L2117.86 2859.74L2124.25 2857.77L2126.21 2850.4L2124.25 2846.47ZM2271.62 2718.75L2266.21 2729.56L2264.25 2739.88L2271.62 2741.84V2771.81L2269.16 2783.11H2264.25L2253.93 2799.81L2235.26 2813.07L2196.46 2823.88L2194 2820.44L2178.77 2817V2813.07L2195.47 2815.53L2196.46 2813.07L2182.21 2810.12L2178.77 2803.74L2186.14 2799.81H2195.47V2796.37H2209.23L2223.48 2788.51L2235.26 2777.7L2240.67 2760.02L2253.93 2761.98L2251.48 2749.21L2245.09 2745.28L2240.67 2733.49L2245.09 2723.67L2253.93 2716.3L2251.48 2726.12L2253.93 2733.49L2261.79 2723.67L2271.62 2718.75ZM2271.62 2707.95L2275.55 2699.6L2249.02 2693.7V2702.05L2257.86 2710.4L2271.62 2707.95ZM2148.32 2771.81L2161.58 2788.51L2160.11 2789.98L2156.18 2786.54L2145.37 2777.7L2138.98 2779.67V2786.54L2151.76 2799.81L2148.32 2803.74L2136.53 2786.54L2134.07 2779.67L2141.44 2771.81H2148.32ZM2225.93 2707.95H2205.79V2721.21L2226.42 2722.19L2225.93 2707.95ZM2186.14 2721.21L2187.12 2708.93L2167.97 2707.95L2166 2718.75L2186.14 2721.21ZM2179.76 2673.56V2686.33H2176.32V2673.56H2179.76ZM2216.11 2674.54H2220.53V2686.33H2216.11V2674.54ZM2217.09 2744.3V2757.07H2213.65V2744.3H2217.09ZM2178.77 2755.6V2741.84H2174.84V2755.6H2178.77ZM2239.69 2778.68L2221.51 2794.4V2800.79L2228.88 2808.16H2237.23L2254.42 2792.93L2249.02 2789.49L2237.23 2800.79H2230.84L2228.88 2796.86L2243.62 2782.61L2239.69 2778.68ZM2209.72 2800.79L2196.95 2799.32L2194.98 2802.75L2186.63 2804.23V2808.16H2194.98L2196.95 2813.07H2201.37V2816.51H2194.98V2820.44L2209.72 2816.51V2810.12L2204.32 2808.16H2196.95V2804.23H2204.32H2209.72V2800.79Z" fill="black"/>
<path d="M2275.55 2699L2263.5 2677.86M2263.5 2677.86V2673.44M2263.5 2677.86L2262.05 2696.05M2263.5 2677.86L2250 2693.59M2263.5 2673.44L2268.32 2675.9L2270.25 2680.32L2273.62 2677.86L2277 2673.44M2263.5 2673.44H2259.16L2253.37 2677.86L2250 2670" stroke="black"/>
<path d="M2242 2655.93V2679.17M2242 2679.17L2227.88 2689.07V2679.17L2242 2687.58V2679.17ZM2242 2722.21L2227.88 2732.1V2720.23L2239.57 2732.1L2242 2724.68L2239.57 2756.84L2236.65 2766.23H2217.66L2223.99 2758.81L2231.29 2762.77L2227.88 2768.71L2231.29 2772.67L2235.67 2767.72L2229.83 2775.14L2219.61 2782.06L2207.93 2786.52L2201.11 2788L2188.46 2775.14H2201.11L2188.46 2786.52L2194.78 2788H2199.16L2181.64 2786.52L2169.47 2780.58L2161.2 2775.14L2156.81 2768.71L2164.12 2754.86L2169.47 2762.77L2156.33 2759.8L2154.87 2767.72L2151.46 2756.84L2150 2748.92V2733.59V2728.15L2164.12 2717.26V2728.15L2150 2717.26V2726.17L2151.46 2685.11L2165.58 2676.7V2687.58L2151.46 2676.7V2683.13V2649" stroke="black"/>
<path d="M2253 2740V2777" stroke="black"/>
<path d="M2203.27 2675.02L2191.64 2687.7V2676.97H2198.42L2194.06 2680.87L2203.27 2685.75M2228 2669.17V2744.76L2226.55 2756.47L2216.85 2770.61L2203.27 2775L2206.18 2669.17H2228ZM2189.7 2657.95L2187.27 2775L2173.21 2767.68L2164 2754.52L2168.36 2656L2189.7 2657.95Z" stroke="black"/>
<defs>
<linearGradient id="paint0_linear_604:11" x1="2858" y1="3556.5" x2="729" y2="3585" gradientUnits="userSpaceOnUse">
<stop stop-color="#CB9A80"/>
<stop offset="1" stop-color="#D9A78B"/>
</linearGradient>
<linearGradient id="paint1_linear_604:11" x1="2858" y1="3556.5" x2="729" y2="3585" gradientUnits="userSpaceOnUse">
<stop stop-color="#CB9A80"/>
<stop offset="1" stop-color="#D9A78B"/>
</linearGradient>
<linearGradient id="paint2_linear_604:11" x1="2083" y1="1946" x2="1483" y2="1941" gradientUnits="userSpaceOnUse">
<stop stop-color="#CB9A80"/>
<stop offset="1" stop-color="#D9A78B"/>
</linearGradient>
<linearGradient id="paint3_linear_604:11" x1="1392" y1="1464" x2="2220.5" y2="1459" gradientUnits="userSpaceOnUse">
<stop offset="0.572917" stop-color="#D9A78B"/>
<stop offset="1" stop-color="#CB9A80"/>
</linearGradient>
</defs>
</svg>
