<svg width="1321" height="1725" viewBox="0 0 1321 1725" fill="none" xmlns="http://www.w3.org/2000/svg">
<path d="M266.5 578.5H273L278 576.5L288 565.5L295 555.5L303.5 547L311 536.5L317 525.5L323.5 511L326 501.5V488L328 475V465L323.5 460.5L319 446L317 436V424.5L310 408.5L305.5 403L303 394L300 385L298 375.5L295.5 366V357.5L292.5 348.5V340.5V329.5L291 321L289 314L283.5 304L282 291L280.5 277.5L278 264V249L276 238.5L277 220.5V210.5L278 197.5L277 186L281 176.5V169.5V156L282.5 147.5L288 142L292.5 134L291 127L288 118L295 108.5L297.5 102L301.5 92L311 87.5L319 73.5L320 65.5L327.5 58.5L333 49L343 41.5L348 34.5H360.5L366.5 31.5H379L391 27.5L397.5 20.5L408 18L412 8L423.5 10.5L433 8L444.5 10.5L452 13L463.5 10.5L468 5.5L481 3.5L488 0L498.5 3.5L512 5.5L519.5 2.5L525 8L534 5.5L541 8L552.5 5.5L560 13L568.5 10.5L576.5 17.5L593 14.5L596 24L611.5 22V31.5L619.5 29.5L621 34.5L627.5 36.5L629 42.5L638.5 48.5L640 57.5L645.5 64L651 71L663 81.5L668 88.5L676 97L683.5 100V105L679.5 110L685 113L692 121.5L695.5 127L702.5 134.5L705 143V149.5L703.5 156L700 161L695.5 163.5L693.5 170.5L692 175.5L694.5 181L697.5 188L700 194.5L705 204L707 215L710.5 226L712.5 234.5L714 245V256.5L712.5 268.5L710.5 279L709.5 285.5L707 293.5L706 304L705 312V319.5V325.5L707 332.5V337.5L708.5 342.5L707 346.5C706.333 347.333 704.5 349.6 702.5 352C700.5 354.4 700 355.333 700 355.5L682 367V370.5L681.5 373L679.5 375.5L678 379L676 386L675.5 387L674.5 388L673 389L672.5 390.5V400L673 403V407.5L673.5 411.5V416L673 423V428V430.5L671 437L668.5 444L667 448.5L665 456.5L661.5 465L656 477.5L650 490L648 496L645.5 504L642 511.5L640 518L638 522.5L636 528L631.5 533.5L629 540.5L625.5 547L622 551.5L619 557.5L613.5 564L610 570.5L606.5 576.5L601.5 583.5L598.5 592.5L591.5 600.5C590.167 602.167 585.9 606.4 579.5 610C571.5 614.5 574 615 564 618C558.25 619.725 556.288 620.348 555.887 620.5H556C555.813 620.547 555.73 620.56 555.887 620.5H553L551 629L548 635.5L545.5 643.5L542.5 652.5L540 662.5V674L529.5 669L519.5 660.5L507.5 650L486 640L463 634.5L439.5 629L401 624L368 620.5L347 616L320 612L293.5 606.5L266.5 591L262 580.5L266.5 578.5Z" fill="#9F7D62"/>
<path d="M689 370.5L682 366.5V370.5L681.5 373L679.5 375.5L678 379L679 382L678 388L676 386L675.5 387L674.5 388L673 389L672.5 390.5V393.5V396V400L673 403V407.5L673.5 411.5V416L673 423L680.5 426H696L701.5 424.5L705 421L708.5 419L715 412L723.5 396.5L723 394L721.5 390.5L708.5 383L689 370.5Z" fill="#7E9EB6" fill-opacity="0.48"/>
<path d="M721.5 367L656 334L653 351.5L682 367L686 369L692 373L698.5 377L704 380.5L710 384.5L716 388L721.5 391L723 394.5V396.5L720.5 401.5L717.5 407L715 411.5L711 415.5L708 419L705 420.5L701 424L695.5 425.5H689H685H680.5L677 424L673 422.5V429.5H675.5L685 431L694 432L704 431L711 427.5L715 424L717.5 420.5L731 401.5L737.5 389.5L740 382.5C740 382.5 740.524 379.888 739.5 378C738.333 375.85 734.5 374 734.5 374L727 370L721.5 367Z" fill="url(#paint0_linear)"/>
<path d="M405 514.498C403.553 508.856 401.5 499.998 401.5 499.998L409.5 499.498L417.5 498.998L430 504.998L441.5 500.998L444.5 500.498L454.5 500.998L470 498.498L483 497.498C486.167 498.832 491.4 500.498 495 500.498C498.6 500.498 515.833 493.832 523.5 491.498L523 485.998L526.5 474.998L529.5 456.998L531.5 444.5V437V426L533.5 419L539 402.5L548.5 391L556.5 386.5L567.5 385L570 378L573 369.5L577.5 360.5L591 345L605.5 335.5L615.5 334L621.5 335.5L626.5 348L630 363.5L628 376.5L631.5 389.5L628.5 394L627 399.5L622.5 404.5L619 412L616.5 422L613.5 432L610.5 438.5L605.5 451L601.5 459.5L598.5 470L595 476.5L590.5 488L585.5 510V518L580.5 532.5L577.5 543.5L576 553.5L572.5 561L568 569.5L564.5 574L560 583.5L556.5 595.5L554.5 607L553.5 616.5V620.5L551 629L549.5 632.5C549.5 632.5 546.915 640.705 545.5 643.999C542.749 650.402 540 664 540 664V672L519.5 661.499L506.5 650.499L489 643.999L474.5 635.999C474.5 635.999 467.405 633.427 463.5 630.498L453.5 622.998C453.5 622.998 447.92 615.944 445 610.998C442.025 605.96 441.074 602.753 438.5 597.499C435.427 591.225 433.468 587.823 430.5 581.499C428.049 576.276 426.558 573.388 424.5 567.998C421.878 561.132 421.973 556.72 419 549.998C416.453 544.24 413.543 541.759 411 535.998C407.48 528.024 407.165 522.942 405 514.498Z" fill="#8A6D56"/>
<path d="M581.5 455L569.5 438L568.5 435.5L567.5 428L566.5 421.5L566 415L565.5 406L567 396.5L567.5 391.5L570 381.5L571.5 376.5L574.5 369L577.5 362.5L581 357.5L586.5 351.5L593.5 344.5L598.5 340.5L603 338.5L605.5 337L612 334.5L618.5 336L623.5 340.5L625.5 348.5L626.5 354L625 358.5L622 365.5L621 367L619.5 370L618 373.5L616.5 375.5V378.5V382.5V391L616 394L614.5 398L613 401.5V406.5L612 410L611 411.5L609 415.5V417.5L610 421.5L611 425V428.5L610 432.5L608 436.5L605.5 440.5L603.5 445.5L602.5 450.5L601.5 454L599.5 458L596 460.5L592 461.5L587.5 460.5L584 458.5L581.5 455Z" fill="#765D49"/>
<path d="M353.5 477C355.019 480.175 354.21 482.826 356.5 485.5C359.834 489.393 363.907 488.926 369 489.5C371.91 489.828 373.678 488.718 376.5 489.5C379.632 490.368 380.934 492.006 383.5 494C385.574 495.612 388.5 498.5 388.5 498.5C388.5 498.5 391.955 500.877 394.5 501.5C398.711 502.531 405.5 500 405.5 500C405.5 500 413.042 498.554 417.5 500C420.749 501.054 421.732 503.505 425 504.5C428.923 505.694 431.6 505.767 435.5 504.5C437.827 503.744 438.673 502.256 441 501.5C444.9 500.233 447.399 501.5 451.5 501.5H459C459 501.5 473.649 497.164 483 498.5C487.408 499.13 490.5 501.5 494 501.5C497.5 501.5 507.5 498.5 507.5 498.5L521 494C526.272 492.243 522.41 488.784 523.5 485.5C524.882 481.335 527.5 475 527.5 475C527.5 475 528.311 467.368 529 462.5C529.526 458.781 529.761 456.683 530.5 453C531.013 450.446 531.621 449.077 532 446.5C532.681 441.863 532 439.186 532 434.5C532 431.766 531.704 430.218 532 427.5C532.462 423.26 533.777 421.086 535 417C535.761 414.456 536.077 412.99 537 410.5C538.427 406.651 541.5 401 541.5 401L548.5 392L556 387L567.5 384.5L570 380L572 373.5L575 367.5L578 361L583.5 354.5L585.5 352L590.5 347L596.5 341.5L601.5 339L606.5 336.5L611.5 335H617.5L621.5 336L623.5 341L624.5 344.5L626.5 348.5L627.5 353L628.5 358L629.5 363.5L627.5 377L630 385.5L632.5 392C634.167 393.333 638.3 396.6 641.5 399C644.7 401.4 646.5 400 647 399L652 396L655.5 392L658.5 387L660 381V374.5L661.5 363.5L662.5 359.5L661.5 357V348.5C661.5 344.9 663.833 344.333 665 344.5L670.5 341L671.5 335.5L673.5 323.5V314.5L679 309L684 303.5L690 292L694 280.5L696 272V261V251.5L692 240L690 226.5L686.5 215.5V203.5L688.5 194L692 186L695.5 177.5L701.5 168.5L708.5 160L720 157L715.5 150.5L716.5 142L705.5 140.5V132.5L700 121.5L692 118.5V110H679.5L683.5 105V100L675.5 96.5L675 91L668 88.5L667.5 83L664 82L663 77L658.5 75.5L657 70.5L651 71L647.5 62.5L640 57.5L638.5 48.5L629 42.5L627.5 36.5L621 34.5L619.5 29.5L611.5 31.5V22L596 24L593 14.5L577 17.5L568.5 10.5L560 13L552.5 5.5L541 8L534 5.5L525 8L519.5 2.5L512 5.5L498.5 3.5L488 0L481 3.5L468 5.5L463.5 10.5L452 13L449 12L442.5 10L433 8L423.5 10.5L412 8L408 18L397.5 20.5L391 27.5L379 31.5H366.5L360.5 34.5H348L343 41.5L333 49L327.5 58.5L320 65.5L319 73.5L311 87.5L301.5 92L295 108.5L288 118L291 127L292.5 134L288 142L282.5 147.5L281 155.715V176.5L277 186L278 197.5L277 208.5V217L276.5 225.5L275.5 238.5L277.5 247.5V251.5V263.5L278.5 267.5L279.5 274.5L280.5 279.5V281.5L281 285.5L283 300.5L283.5 304.5L288.5 313.5L290.5 320.5L292.5 329.828V348.5L293.5 352L295 357.5L295.5 366L297.5 374L298.5 378.5L299 381.5L300 385L301 387.5L303 394L305.5 403L310 408.5L317 424.5V436L319 446V450.5L321 458.5C321 458.5 323.655 462.289 326 464C329.194 466.331 331.587 466.933 335.5 467.5C338.205 467.892 339.832 466.904 342.5 467.5C346.259 468.339 348.555 469.524 351 472.5C352.276 474.053 352.633 475.186 353.5 477Z" fill="#211B1B"/>
<path d="M625 358.5L622 365.5L620 364.5L619 360.5V355.5L618 350L614.5 347L611 344.5L606 345.5L601.5 346L596.5 350L591 356.5L588 360.5L585.5 365.5L583.5 371L581.5 375L580 380L578 386L575.5 394.5L574.5 402.5L573.5 411V419V423L577 432L580 437.5V442.5L583.5 448V453L581.5 455.5L578.5 450.5L575.5 447L573.5 444.5L571 441L569 437.5L567.5 432V428L566.5 423L566 419V415L565.5 411V406L566 401.5L567 396L567.5 391.5L568.5 386L569 384L570 381.5L570.5 379L571.5 376.5L572 374L573.5 371L574.5 369L575 366.5L577 363L578 361L580 358.5L581.5 356.5L583.5 354L585.5 352.5L587.5 350L589.5 348L591 346L593.5 344.5L595.5 342.5L598 340.5L600 339.5L603 338.5L605.5 336.5L608.5 335.5L612 334.5H615.5L618 335.5L620.5 337L622 338.5L623.5 340.5L624.5 343L625.5 345.5L626 348L626.5 351V354L625 358.5Z" fill="#AF8A6D"/>
<path d="M606 400.5L609.5 398L612 400.5V404V409L609.5 411L606 412.5L605 409L606 404V400.5Z" fill="#AF8A6D"/>
<path d="M593.5 369L591 375L589.5 379V385.28L593 383.5L595.5 379L597.5 376.5L598 374L597.5 370.5L596.5 368H595.5L593.5 369Z" fill="#AF8A6D"/>
<path d="M608.5 352H612.5L616 355L614.5 358.5L610.5 363.5L605.5 366.5C604.667 366.833 602.6 367.3 601 366.5C599.4 365.7 600.333 363.5 601 362.5L603 358.5L605.5 355L608.5 352Z" fill="#472F29"/>
<path d="M593 395L594.5 391.5H596L599.5 390.5V393L601 395L602 397.5V401L601 404V406.5L599.5 409.5V410.5L596 416.5L593 418.5L589 419.5L586.5 418.5V413.5V408.5L589 405.5L591.5 402.5V399L593 395Z" fill="#472F29"/>
<path d="M882 1379.5L875.5 1376L783 1332.5L786.5 1317.5L778 1321V1309L777 1299V1292.5L775.5 1288L773 1281L801 1243.5L799.5 1239.5L798.5 1236L797.5 1234.5L795.5 1227.5L793 1220.5L791 1214.5L789 1208.5L786.5 1202.5L785.5 1198L785 1195.5L784 1190.5L783.5 1187.5L783 1182L782 1178.5L780 1170L778 1163.5L776.5 1159L775.5 1153.5L774.5 1147.5L774 1146L769 1132.5L767.5 1126.5L761.5 1113.5V1105.5V1095.5L760.5 1089V1080.5L759.5 1072.5V1059.5V1048.5L756 1037.5L754 1028.5L769 994.5L781.23 965.627L809 905L832.5 852L844.5 826L847.5 823.5L851 822.5L856 823.5L912 839.5L1011.5 867.5L1079 886.5L1169 912L1247.5 934L1305.5 951L1310.5 952L1315.5 954.5L1319.5 958L1321 961.5L1319.5 967.5L1309.5 991L1268 1087L1235 1163L1199.5 1245L1179.5 1293L1174 1302H1170L1167 1304L1145.5 1315.5L1138.5 1318.5L1121.5 1326.5L1112.5 1331.5L1106 1334.5L1046 1360.5L992.5 1384L962.5 1397L951 1401L943 1402.5H936L927.5 1399.5L917 1395L905.5 1390.5L897.5 1386.5L889.5 1382.5L882 1379.5Z" fill="#1A1A1A"/>
<path d="M1173.5 1297.5L1172.5 1299L1171 1301.5L1168 1303.5L1148 1314.5L1136.5 1319L1112 1331.5L1097 1338L1069 1350.5L1035 1365L996 1382.5L981 1389L962.5 1397L959.5 1398L953 1400.5L945 1402L946 1399.5L948.5 1397L950.5 1395L1007.5 1368L1057 1343.5L1106 1320.5L1127.5 1310L1149.5 1298.5L1163.5 1292L1167 1291.5L1170 1292L1172 1292.5L1173.5 1294L1174 1296L1173.5 1297.5Z" fill="#403F3B"/>
<path d="M930.5 1407L871.5 1384L877 1374L953 1400L952.5 1401L944.5 1405L940 1407H933.5H930.5Z" fill="url(#paint1_linear)"/>
<path d="M971.5 1320H974.5L977.5 1321L982.5 1320L987 1316.5L988.5 1314L976 1309L978.804 1307.5L996 1312H998.5L1002 1311L1007.5 1307.5L1011.5 1309L1007.5 1312L1005 1315.5L1021 1323L1026.5 1322L1034.5 1317.5L1034 1315.5L1018 1307.5L1014 1306H1010.5L1007.5 1305L979.5 1296.5L981 1291.5L1013 1303.5H1016.5L1022.5 1299.5L1028.5 1301.5L1022.5 1305V1307.5L1039.5 1315.5L1042.5 1315L1052 1309L1050 1306L1034.5 1300L1026.5 1298.5L1025 1299.5V1297.5L1010.5 1291.5L998.5 1286.5L995 1283.5H987L992 1279.5L1000.5 1273.5L1005 1277L997.5 1282L1000.5 1283.5L1016.5 1290.5L1031 1296.5L1034 1295.5L1042.5 1290.5L1047 1293L1044.5 1294L1042.5 1296.5L1040 1298.5L1057 1305L1061 1306L1069.5 1301.5V1299.5L1054.5 1293L1047 1290.5L1042.5 1289.5L1028.5 1283.5L1025 1282L1019 1280.5L1022.5 1278L1029.5 1280.5L1034 1282L1037.5 1283.5L1048.5 1288L1052 1286.5L1060 1282L1062.5 1279.5H1067.5L1071 1278L1073 1280.5L1067.5 1283.5H1062.5L1061 1284.5L1062.5 1286.5L1059 1288V1290.5L1075 1296.5L1079 1297.5L1087 1293V1289.5H1094.5L1103.5 1286.5V1289.5L1089 1296.5L1076 1303.5H1072L1071 1306L1060 1311H1054.5L1053.5 1314L1042.5 1319L1037.5 1320L1036 1322L1026.5 1327L1022.5 1328H1019V1330L1010.5 1335H1005H999.5L997.5 1333L999.5 1330L1003.5 1331.5H1007.5L1011.5 1330L1015.5 1327L1016.5 1324.5L1005 1321C1004.17 1319.5 1001.9 1316.5 999.5 1316.5H995H991L992 1320L981 1326H974.5L971.5 1323V1320Z" fill="#8888A2" fill-opacity="0.7"/>
<path d="M1047 1268L1044.5 1266.5L1038.5 1268H1036L1030 1266L1025 1264.5L1023.5 1268L1028.5 1269.5L1037.5 1272.5L1042.5 1271L1047 1268Z" fill="#8888A2" fill-opacity="0.7"/>
<path d="M794 1179.5L787.5 1176.5H784L786.5 1200.5L787.5 1203L796 1226L798.5 1226.5L804.5 1231.5L813 1235L816.5 1232.5L823.5 1227.5H826.5L823.5 1225.5H822L820.5 1226L815 1230H813L805 1226L805.5 1225L811.5 1220L809.5 1219.5H806.5L796.5 1224.5L793 1212.5L801.5 1215.5L809.5 1218L815 1217.5L818 1215.5L822 1210L820 1208L819 1209L810.5 1213L807 1213.5L792.5 1208.5L791.5 1207L798.5 1201.5L800 1196.5L798 1197C797.333 1197 795.6 1197.6 794 1200C792.4 1202.4 789.667 1203 788.5 1203L787.5 1201.5V1198.5L789.5 1197L794 1195.5L798 1193L801 1190.5L802 1189L798 1187.5C796.167 1189 792.1 1192 790.5 1192H786.5L785 1179.5L787.5 1180.5L796 1182.5L801 1186L805.5 1189H808L825.5 1195.5C823.167 1196.5 818.2 1198.8 817 1200C815.8 1201.2 813.723 1200.5 812.834 1200L802 1197L800 1200L803 1201.5L817 1205L822.5 1201.5C823.5 1201.33 825.8 1200.5 827 1198.5C828.2 1196.5 830.5 1197.67 831.5 1198.5L848.5 1204C848.5 1204.67 847.7 1206.6 844.5 1209C841.3 1211.4 839.167 1211.33 838.5 1211L827 1206L822.5 1204L820.5 1206L823.5 1210L827 1211L844.5 1216L841 1218.5C839.5 1219.33 835.8 1221.4 833 1223C830.2 1224.6 829.167 1223.67 829 1223L821.5 1218.5C820.167 1217.67 817.1 1216.5 815.5 1218.5C813.9 1220.5 814.833 1221 815.5 1221L820.5 1223L829 1227H836.5L850.5 1218.5L854 1216L846 1213.5L852.5 1207.5L855 1206L862.5 1209L865.5 1206L864 1204L860.5 1206L852.5 1203V1198.5C852.5 1198.1 849.833 1199.33 848.5 1200L838.5 1197V1194L834 1195.5L829 1194L827 1192L828 1189H825.5L822.5 1190.5L813.5 1187.5V1184.5L810 1186L805.5 1184.5L801 1182.5V1179.5L798 1180.5L794 1179.5Z" fill="#8888A2" fill-opacity="0.7"/>
<path d="M819 899L847.5 835C847.5 835 848.036 832.361 849 831C849.638 830.098 849.985 829.435 851 829C852.077 828.538 852.872 828.682 854 829C870 833.5 913 846.5 913 846.5L1004.5 873L1094.5 898.5L1169 919L1237.5 937.5L1308.5 957.5L1311.5 959L1313 961L1314 963.5V966.5L1310.5 975.5L1266.5 1076.5L1224.5 1171L1175 1281.5L1173 1283L1171.5 1284H1167.5L1153 1280L1019.5 1234.5L858.5 1176.5L776 1149.5L765 1121.5L762 1110V1094.5L759 1069L759.5 1049L755 1043.5L772 1004.5L819 899Z" fill="#2F3336"/>
<path d="M604.5 1331.5L601 1315.5L604.5 1314L612 1311.5L619 1311H632L646.5 1309.5L660 1306.5L674 1305L691 1302.5L704.5 1299.5L717 1296.5L730.5 1293L742.5 1290L753 1288L761 1286L768 1283.5L774 1281L775 1283L775.5 1286L776 1289L777 1292.5L777.5 1296.5L778 1299.5V1303.5L778.5 1308L779 1314.5V1320L785.5 1317L788.5 1315L793 1312L796 1309.5L798.5 1306.5L801.5 1302.5L805 1299L808.5 1295L811 1290L810.5 1286L810 1283.5L808.5 1281L807.5 1278L805.5 1275V1270.5L806.5 1268L807 1265.5L806.5 1262.5L805.5 1258.5L804.5 1255L803 1250V1247.5L803.5 1245L804.5 1243L806.5 1241L808.5 1238L812.5 1235L815 1232.5L820.5 1229.5L823.5 1227L827 1226.5H831L837 1225L841 1223.5L845.5 1221.5L849 1219L852 1216.5L855 1215L859 1212L862.5 1208.5L865 1205.5L868.5 1203L871 1200.5L875 1197.5L877.5 1195L881 1190.5L885.5 1187.5L889.5 1186L892.5 1185H896L899.5 1185.5L903.5 1188L906 1190.5L908 1194L910.5 1200L911.5 1207L914.5 1208.5L918 1206L920.5 1204.5L923.5 1200.5L927 1196.5L930.5 1193L934 1188.5L937 1186L941 1184.5H945.5L949.5 1186L953 1187.5L956 1191L959.5 1194.5L961.5 1200L962.5 1205V1208.5L964.5 1207L967.5 1206.5H971.5H976L979.5 1208.5L983 1212L987 1216.5L988.5 1221V1225L987.5 1229.5L987 1234L986 1237.5L984.5 1241.5V1245L987.5 1243.5H991H995L999 1245L1001.5 1247L1004.5 1249.5L1006.5 1253.5L1007.5 1257V1261L1007 1264.5L1004.5 1268.5L1001.5 1271L999 1273.5L995.5 1276L992 1278.5L988.5 1281.5L986 1284.5L984 1288.5L982 1291L980 1295.5L978 1300L974.5 1304.5L969 1310L964.5 1314.5L959 1319.5L954.5 1322.5L950 1325L945 1328L942 1329.5C940.667 1330.17 936.7 1331.9 931.5 1333.5C926.3 1335.1 925 1335.83 925 1336L918.5 1338L911.5 1338.5L907.5 1341L902 1345.5L895.5 1351L890.5 1355.5L883.5 1364.5L879.5 1370.5L877 1375L873 1380.5L871 1387L869 1392L865 1400.5L863 1405.5L860 1412L857.5 1417L854.5 1423.5L849 1432L845.5 1438L840 1446L835.5 1452L832 1456L828.5 1461L824.5 1464.5L820 1468.5L815.5 1473.5L810.5 1479L806 1482.5L798.5 1487.5L791.5 1493L787 1496C785.667 1496.83 782.2 1499.1 779 1501.5C775.8 1503.9 775.333 1504.83 775.5 1505L769.5 1509L765.5 1512L759.5 1514.5L754.5 1517.5L750 1519.5L744.5 1521L740.5 1523C738.833 1524 734.5 1526.3 730.5 1527.5C725.5 1529 727 1529 722 1529.5C718 1529.9 715.667 1531 715 1531.5H709.5L705 1530.5L700 1527.5L695 1524.5L690.5 1520.5L686 1516.5L682 1512L678.5 1508.5L675.5 1505L672.5 1501L669 1497.5L666 1492.5L662 1487C662 1487 659.671 1483.56 658 1481.5C656.52 1479.67 655.496 1478.81 654 1477C652.136 1474.74 650.823 1473.61 649.5 1471C648.384 1468.8 648.234 1467.36 647.5 1465C646.656 1462.29 646.449 1460.68 645.5 1458C644.508 1455.2 643.878 1453.64 642.5 1451C641.445 1448.98 640.406 1448.09 639.5 1446C638.689 1444.13 638 1441 638 1441L636 1432L632 1418L628.5 1405.5L623.5 1390.5L621.5 1383.5L619 1375.5L617 1369L613.5 1360L610.5 1351.5L608 1343L604.5 1331.5Z" fill="#9F7D62"/>
<path d="M779.5 1338.5L778.5 1331V1325V1320L785.5 1317L793 1312L797.5 1308L798.5 1310V1313.5C798.5 1314.67 797.5 1322.5 797.5 1322.5L796.5 1328.5L793 1338.5L779.5 1354V1347V1338.5Z" fill="#856952" fill-opacity="0.8"/>
<path d="M814.5 1287.5L811 1290L810.5 1286L810 1283.5L811.5 1284L814.5 1282.5V1278C815.333 1276.33 817.7 1274 820.5 1278V1281L817 1284L814.5 1287.5Z" fill="#856952" fill-opacity="0.8"/>
<path d="M956 1210.5C957.6 1208.9 957.156 1208.92 958 1208C958.559 1207.39 959.5 1206.5 959.5 1206.5C959.5 1206.5 960.527 1205.68 961 1205C961.6 1204.14 962 1202.5 962 1202.5C962 1202.5 962.403 1204.32 962.5 1205.5C962.596 1206.67 962.5 1208.5 962.5 1208.5L963.5 1207.5L961.5 1211L960.5 1212.5L958.5 1215C958.167 1215.5 956.645 1216.71 955.5 1219L954 1222L952.5 1224C952.5 1224 950.781 1224.67 950 1225.5C949.517 1226.01 949.453 1226.46 949 1227C948.645 1227.42 948.524 1227.82 948 1228C947.172 1228.28 946 1227 946 1227L945.5 1225.5C945.5 1225.5 945.337 1223.21 946 1222C946.53 1221.03 947.29 1220.85 948 1220C948.906 1218.92 949.219 1218.17 950 1217C950.391 1216.41 950.558 1216.05 951 1215.5C951.52 1214.85 952 1214.67 952.5 1214C953 1213.33 954.4 1212.1 956 1210.5Z" fill="#856952" fill-opacity="0.8"/>
<path d="M979 1237L981 1236.5L983.5 1234.5L987.5 1229.5L987 1234L986.5 1236L985.5 1238.5L984.5 1241.5V1245L983.5 1246L981 1248L979.5 1249.5L978.5 1251L977 1252.5L976 1253C975.5 1253.83 974 1255.8 972 1257C970 1258.2 969.5 1258.83 969.5 1259H968.5L967.5 1257.5L966 1255.5L967 1253L967.5 1251L968.5 1250L970.5 1248L972 1245.5L973 1243.5L975 1241L976.5 1239L979 1237Z" fill="#856952" fill-opacity="0.8"/>
<path d="M729 1290.5L654 1308L657.5 1313.5L660.5 1322.5L662.5 1329C663.333 1330.17 666.2 1335.5 671 1347.5C674.2 1354.7 674.667 1355.83 674.5 1355.5L676.5 1362L678 1368.5L680.5 1376C680.5 1376 681.102 1380.65 682 1383.5C683.313 1387.66 687 1393.5 687 1393.5L692 1406L695.5 1422.5C695.5 1422.5 695.278 1426.47 695.5 1429C695.869 1433.2 698 1439.5 698 1439.5C698 1439.5 699.555 1442.76 700 1445C700.571 1447.87 699.833 1451 700 1452.5C700.167 1454 701 1458.7 703 1465.5C705 1472.3 705.5 1474.5 705.5 1474.5L711 1494C711 1494 711.5 1504 712.5 1506C713.5 1508 716.14 1509.56 719 1511C721.205 1512.11 722.558 1512.63 725 1513C727.124 1513.32 728.352 1513 730.5 1513C733.624 1513 735.608 1514.18 738.5 1513C740.561 1512.16 743 1509.5 743 1509.5C745.333 1506.5 748.539 1496.73 754 1494C755 1493.5 759 1490 759 1490C759 1490 760.131 1487.63 760.5 1486C761.105 1483.33 761.148 1481.66 760.5 1479C759.69 1475.68 756 1471.5 756 1471.5C756 1471.5 754.634 1467.89 754 1465.5C753.135 1462.24 752.701 1460.36 752.5 1457C752.395 1455.25 752.62 1454.25 752.5 1452.5C752.211 1448.29 750 1442 750 1442C750 1442 748.082 1436.6 747.5 1433C746.659 1427.79 747.5 1419.5 747.5 1419.5C747.5 1419.5 746.223 1413.14 746 1409C745.863 1406.46 746.174 1405.03 746 1402.5C745.755 1398.94 745.059 1397.02 744.5 1393.5C743.881 1389.6 743 1383.5 743 1383.5V1379C743 1377.27 741.96 1372.71 741.041 1368.68L741 1368.5C740.147 1364.76 738.997 1362.8 738.5 1359C737.994 1355.13 738.5 1349 738.5 1349C738.5 1349 738.834 1344.11 738.5 1341C738.07 1337 736 1331 736 1331L733.5 1322.5L731.5 1313.5L729 1303V1290.5Z" fill="#856952" fill-opacity="0.8"/>
<path d="M909 1208L908.5 1205L908 1200.5L908.5 1195.23L910.5 1200L911.5 1207L913.5 1208L914.5 1208.5L911.5 1209L909 1208Z" fill="#856952" fill-opacity="0.8"/>
<path d="M529 971.5V946.5L523.896 925.157L523.5 919.5L524.5 906V894V885L523.5 874L517.5 870.5V851.5V839.5V828L512.5 815.5L508.5 805.5V796.5L503.5 780V767.5L500 750.5L497 740.5V726.5L493 718V706.5L497 684V674.5V655.5L500 649.5L508.5 645.5L517.5 649.5L524.5 655.5L533 662L542 668L548.5 674.5L554.5 681L560.5 690L566.5 696L578.5 702L584 710L593 718L607.5 729L618 736L625 743L639 758.5L649 767.5L659 773L672 782.5L685 793.5L691.5 805.5L703 815.5L709.5 822L715.5 831.5L722.5 846L728.5 860L736.5 876.5L740.5 891L745 903L750 923.5V941L753.5 960V983.5L756 1011V1034L760 1048V1071L763 1095.5V1111.5L765.5 1119.5L768.5 1132L774.5 1144.5L778 1158L782.5 1179L786 1193L799.5 1232V1246.5L795 1260.5L786 1267.5L779.5 1277L773.5 1283L763.5 1287L748.5 1290.5L736.5 1295L709.5 1299L687 1307H655L629 1312.5H612L603.5 1318H578.5L568 1295L561.5 1260.5L551.5 1214V1177.5L543 1144.5V1115.5C543 1106.33 542.2 1075.9 539 1027.5C536.2 1006.3 537.833 1007.67 539 1011L529 971.5Z" fill="url(#paint2_linear)"/>
<path d="M264.5 574.5L269 577L270 580.5L275 586L280 592.5L286.5 598.5L294 603L304.5 606.5L318.5 610L334.5 612L349 614L363 616L372 617L388 620.5L400 621L415 622.5L429 625L443.5 628L455 630.5L463.5 631.5L473.5 632L481.5 634.5L490 637.5L497 639L510 645.5L518 651.5L523 656.5L532.5 665L540.5 670.5C542 671.5 546.4 674.8 552 680C557.6 685.2 557.667 686.5 557 686.5L564.5 694.5L569.5 700L576.5 706L584.5 711.5L593.5 719L603.5 726.5L611 733L617 737.5L624.5 745L631 750.5L640.5 758.5L647.5 766L654.5 772.5L661 776L667.5 780L674.5 786.5L680.5 792.5L686.5 798.5L691.5 805L695.5 810.5L703.5 816L709.5 822L710.5 823.5L713 827.5L716.5 833.5L718 836.5L720 840.5L724.5 850.5L727.5 857.5L729.5 862L732.5 868L736.5 876.5L738 882L745 903L750 923.5V936V941L753.5 960V966.5V977.5V983.5L754 988.5L754.5 994.5L756 1010.97V1016V1025V1028.7V1034L757 1037L758.5 1042.5L760 1048V1051V1060.5V1066.5V1071L760.5 1075L761.5 1083L762 1087.5L763 1095.5V1102.5V1107.5V1111.5L764.5 1115.5L766 1121.5L768 1128L770 1134L774 1143L780 1156.5L782 1163.5L784.5 1173L787 1183L788 1191L789.5 1199L793.5 1210.5L796.5 1219L799 1226L802 1235.5L805.5 1245.5L809 1256L810.5 1263L811.5 1267L808 1269.5L801.5 1273.5L792.5 1278L779.5 1282.5L768.5 1287L758 1289.5L748.5 1291.5L734.5 1295L723.5 1298.5L712.5 1301L701.5 1303.5L686.5 1306L675.5 1307.5L661 1310L650 1312L638.5 1313.5H626H618.5L605 1317L602.5 1319L606 1334L611.5 1351L617.5 1367.5L622.5 1386.5L627.5 1402.5L628 1414.5V1461L631 1487.5V1519.5L633 1540L634.5 1564V1585.5L637 1608.5V1635.5L638 1643.5L637 1668L639.5 1696.5L638 1715.5L639.5 1724.5H0.5L0 1657L2 1635.5L11.5 1617.5V1600.5L11 1576L6.5 1555V1540.5V1528.5L11 1514L14.5 1481L20.5 1452.5L22.5 1417.5L24 1378.5L28.5 1342L30.5 1319L36 1280L37.5 1247L39 1208.5L40.5 1171L42.5 1133L36.5 1096L33 1074L28.5 1061L21.5 1050L17 1038.5L10.5 998.5L12 970L15 950L18.5 928L16.5 909L9 878L8.5 861.5L9.5 850.5L15.5 832.5L23 805.5L31.5 782L41 756.5L55.5 733L68 715.5L84.5 694L102 677L114.5 662.5L124 654.5L139.5 645L149 634.5L154.5 629.5L158.5 625L163.5 619.5L172.5 612.5L180.5 608.5L188 606L197 604.5L204.5 600L213.5 597.5L219.5 596L224 593.5L228 590.5L233 587L236 585L239 583.5L242 582L246.5 580.5L251.5 578.5L255 576.5L259.5 575L264.5 574.5Z" fill="url(#paint3_linear)"/>
<path d="M13 1499.5L14 1496L17 1488.5L20 1484L22.5 1474L26.5 1466.5V1457L30 1447.5L32.5 1436.5L30 1425V1413.5V1400.5L32.5 1388V1378L36 1368L38.5 1358L40.5 1349.5V1340L38.5 1329.5V1321V1308V1299.5L40.5 1286L43.5 1275.5V1263V1251V1244L46.5 1238L51 1233.5L54 1219.5L51 1206.5V1195.5V1183.5V1173L54 1161.5V1145.5L51 1125V1109.5L54 1096L57.5 1086.5V1076V1066.5L56 1059V1048V1027.5V1015L57.5 1006.5L60 997.5V987.5L63 980V971L66.5 960.5L70 951.5L77 940.5V934V920.5L79 910.5L83.5 904L86.5 896.5L89 888.5L96 878.5L102.5 870L106 862.5L115.5 849.5L117.5 844.5L121.5 837.5L127.5 829.5L130.5 815.5L138 804.5L144.5 795.5L146.5 786L158.5 772.5L164 759.5L169.5 755.5L180.5 745.5L190.5 733L213.5 709.5L228 690.5L243.5 678L257.5 667.5H267L273 675.5L276 690.5L257.5 719.5L232.5 759.5L220.5 772.5L211 793V801.5L213.5 815.5V823.5L196.5 876L190.5 920.5L185.5 918L180.5 898.5L178 873L170.5 841.5L164 837.5L158.5 843.5L153.5 848.5L146.5 858L138 866L135.5 873L138 882.5L135.5 892L130.5 898.5L125 910.5L121.5 932L117.5 946.5L115.5 956.5L113 964C112.167 965.667 110.2 970 109 974C107.8 978 107.833 989 108 994L106.5 1001.5L107.5 1009.5L109 1032V1042.5L110 1061.5V1073L111 1084.5V1093V1099.5L112 1112L113.5 1119L114.5 1144L113.5 1155V1175V1181L116.5 1200L118.5 1208.5L119.5 1223L118.5 1229.5V1242L115 1255L112.5 1265.5L110 1280L108 1288L105 1299.5V1313L103 1321L102 1329.5V1337.5V1348L98 1368V1376L95 1386V1403.5L93.5 1413.5L91.5 1420L87 1436.5L84.5 1445V1451.5L83 1460L81 1469.5L78 1488.5L76.5 1499.5L75 1509.5L72.5 1519L69.5 1526.5L66.5 1533.5L61.5 1538.5L57.5 1539.5L50 1542H45L40 1543C37.8333 1543.5 31.4 1544.2 23 1543C19 1541.8 19.3333 1540.83 20 1540.5L17 1537L14 1533.5L13 1529.5L12 1526.5V1519V1515.5L13 1509.5V1504V1499.5Z" fill="url(#paint4_linear)" fill-opacity="0.61"/>
<path d="M276 987.5L283.5 956.5L289 954.5L293.5 959L300 966.5L301 985.5L302 1002.5L303 1017.5V1033.5L304 1052.5L304.5 1067L305 1084L306 1093V1108.5V1130.5V1141L309 1174.5L312 1196V1215.5V1239L314 1259.5L318 1278.5L319 1300.5L321 1321L324.5 1338.5L327 1355.5L329.5 1381L331 1400.5V1418L335.5 1439V1459.5V1485.5L342 1502.5V1531V1545V1566.5L346.5 1604C350 1612.33 357 1632.2 357 1645C357 1657.8 371.667 1666.67 379 1669.5L402.5 1682.5C404.667 1684.67 415.5 1707 415.5 1707L419 1716.5L420.5 1722.5V1724.5H326.5L310 1717.5L300 1707L289 1695.5L280 1689L274 1682.5L265.5 1675.5L264 1669.5V1663.5L260.5 1653L258.5 1645L257 1639.5L255 1629L253.5 1617.5L249.5 1609.5V1596V1580L246 1566.5L245 1545L246 1531L247.5 1494.5L249 1459.5V1418V1396L254.5 1361.5V1320.5V1286.5L258.5 1246.5V1219L263 1146V1116L268 1082V1058.5L272.5 1038V1010L276 987.5Z" fill="url(#paint5_linear)" fill-opacity="0.51"/>
<path d="M219 1140V1153L216.5 1167.5V1185.5L213 1193.5V1209V1228L209 1240.5V1255.5V1271L205.5 1290.5V1317.5L200.5 1334V1346.5C201.333 1352 202.5 1366.1 200.5 1378.5C198.5 1390.9 197.667 1405.33 197.5 1411L194 1425.5L191.5 1451L188.5 1464L186 1477.5L183 1497V1513.5V1530.5L186.5 1551V1562.5V1582.5L178 1590.5H167C164.833 1589.5 158.7 1587.3 151.5 1586.5C144.3 1585.7 145.833 1580.17 147.5 1577.5C147 1572.5 145.6 1560.2 144 1551C142.4 1541.8 143.333 1537.17 144 1536V1522.5L151.5 1505V1491V1481.5L158.5 1464L160.5 1444L163 1429.5V1414.5L165 1398.5L169.5 1383L173 1363V1356L177.5 1338.5L182.5 1323L186 1290.5L188.5 1277.5V1259.5L191 1246V1228V1216.5V1202.5L193.5 1183.5L195.5 1167.5L200 1149.5L206 1133.5L209 1119L213 1108.5H219L221 1122.5L219 1140Z" fill="#331016" fill-opacity="0.38"/>
<path d="M361 1181.5L361 1135.5L355 1095V1064.5H363L373.5 1095L405.5 1141L423.5 1169L446 1185L460 1182L472 1170.5L474.5 1153.5L472 1135.5V1123.5V1108L461 1095V1080L455 1064.5L449.5 1048.5L443 1033.5V1024.5C441.333 1019 438 1001.4 438 974.999C438 962.199 441.333 956.666 443 955.499L449.5 944.499L461 934.499L466 921.999L472 899.5L482 885.5L490 893.5L500 907L510 923.999L520 944.499L522 965.499L520 990.999V1008L526 1033.5L533.5 1057.5L541.5 1087V1112.5L547.5 1141L555 1169L562 1197L564 1217.5L566 1232L568.5 1252.5L573 1270.5L575.5 1289.5L580 1306.5L582 1313.5L587 1314.5H601L603 1322L607 1337.5L612.5 1354L618 1369L624 1392.5V1443.5V1460L625.5 1472.5L626.5 1481.5L627 1486L628 1492.5V1497.5L624 1515.5V1531L615 1543.5L608 1558.5L599.5 1572.5L588.5 1589L577 1601.5L565.5 1615.5L551 1632L539 1639.5C530.833 1641.17 506.4 1645.4 474 1649C453.6 1652.6 456.5 1650.5 460.5 1649L441 1636.5L426.5 1627C423 1621.83 413.9 1607.7 405.5 1592.5C403.9 1584.1 400.167 1578.33 398.5 1576.5L393 1563.5L387 1543.5L384 1524V1512V1497.5L387 1485.5L389.5 1467.5V1442.5L393 1419L389.5 1399V1383.5L384 1356.5C383.667 1352.67 382.6 1336.5 381 1302.5C381 1284.1 376 1273.5 373.5 1270.5V1255.5L363 1232V1215.5C362.333 1212.17 361 1203.2 361 1194V1181.5Z" fill="url(#paint6_linear)" fill-opacity="0.82"/>
<path d="M312 919V901.5L317.5 892.5V870V849.5L323.5 836L328 821L332.5 805.5L339.5 789.5L353 777.5L360.5 770L377 765L383 759L390.5 748H401.5H413.5L422 753L429.5 770L422 789.5L407.5 811.5L390.5 832L377 843.5L360.5 870L353 892.5L343.5 910.5L332.5 931.5L322 944.5L316.5 948L313.5 939.5L312 919Z" fill="url(#paint7_linear)" fill-opacity="0.46"/>
<path d="M628.5 394L627 399.5L622.5 404.5L619 412L616.5 422L613.5 432L610 439.5L605.5 451L601.5 459.5L598.5 470L595 476.5L590.5 488L588 500L585.5 510V518L580.5 532.5L577.5 543.5L576 553.5L572 562L568 569.5L564.5 574L562.5 578.5L560 583.5L556.5 595.5L555.5 601L554.5 607L554 612.5L553.5 616.5V620.5H556L559.5 619.5L567 617L572 615L576 612.5L583 608L592 600.5L598.5 592.5L601.5 584L608.5 573.5L613.5 564.5L619 558L622.5 551L625.5 547L629.5 540L631.5 534L636 529L639 520.5L640 518L642 511.5L645.5 504.5L647 500L650.5 489.5L652.5 485.5L654.5 482L657 476.5L658.5 472.5L656.5 470.5L653 467.5L650 456.5L647.5 448.5V435.5L646 428.5V417.5V409.5V399.5L640.5 398L637.5 395.5L634 393L631.5 389.5L630 391.5L628.5 394Z" fill="#3A2721" fill-opacity="0.45"/>
<path d="M707 332L706 328.5L705 329.5L704 331L703 333.5V335.5V337.5L703.5 341.5L703 345L701.5 347.5C701.167 347.833 700.5 349 700.5 351C700.5 353 701.833 352.5 702.5 352L703.5 350.5L705 349.5L706.5 347.5L707.5 346L708.5 344V341.5L707.5 337.5C707.1 335.9 707.333 335.833 707.5 336L707 334V332Z" fill="#40302B"/>
<path d="M678.5 379.5L678 378L675.5 382V384.5L677 388.5L679.5 389.5V387V384.5V382L678.5 379.5Z" fill="#30261D"/>
<path d="M377 347.5L374.5 330L369 308L350 279.5L343 253L337.5 231.5L329 213L320.5 191.5L310 167.5L301 159.5L292.5 150.5L282 148L281 155.5V176.5L277 186L278 197.5L277 208.5V217L275.5 238.5L277.5 247.5V264L278.5 267.5L279.5 274.5L280.5 279.5V281.5L281.5 289.5L282.5 297.5L283.5 304.5L288.5 313.5L290.5 320.5L292.5 330V348.5L295 357.5L295.5 366L299 381.5L300 385L305.5 403L310 408.5L317 424.5V436L319 446V450.5L321 458.5L323.5 461.5L326 464L328.5 465.5L331 466.5L334.5 467.5H337.5H339.5H341.5H342.5L344.5 468L347.5 469.5L349 470.5L351 472.5L353 476L354 478.5L355 482.5L356 485L358.5 487.5L362.5 489L368.5 489.5H371.5L374.5 489L379 490.5L381.5 492.5L386.5 496.5L388.5 498.5L392 500.5L394.5 501.5L396.5 502L399.5 501.5L402 501L403.5 492.5L404 483.5C404 483.5 406.58 475.669 406.5 470.5C406.426 465.714 404 458.5 404 458.5L400.5 444.5L385.5 422L378 404L373 377.5L374.5 366L377 347.5Z" fill="#2C2323"/>
<defs>
<linearGradient id="paint0_linear" x1="738" y1="398.5" x2="652.5" y2="346" gradientUnits="userSpaceOnUse">
<stop offset="0.914074" stop-color="#1D1D1D"/>
<stop offset="1" stop-color="#1D1D1D" stop-opacity="0"/>
</linearGradient>
<linearGradient id="paint1_linear" x1="910" y1="1386" x2="905.5" y2="1397.5" gradientUnits="userSpaceOnUse">
<stop stop-color="#1B1B1B"/>
<stop offset="0.996807" stop-color="#333333" stop-opacity="0"/>
</linearGradient>
<linearGradient id="paint2_linear" x1="857.5" y1="1248.5" x2="552" y2="981.5" gradientUnits="userSpaceOnUse">
<stop stop-color="#320F16"/>
<stop offset="1" stop-color="#320F16" stop-opacity="0"/>
</linearGradient>
<linearGradient id="paint3_linear" x1="759.001" y1="1748" x2="-7.50174" y2="734.002" gradientUnits="userSpaceOnUse">
<stop stop-color="#330F16"/>
<stop offset="1" stop-color="#461919"/>
</linearGradient>
<linearGradient id="paint4_linear" x1="46.5" y1="1042" x2="184" y2="1079" gradientUnits="userSpaceOnUse">
<stop offset="0.409285" stop-color="#330F16"/>
<stop offset="0.965186" stop-color="#330F16" stop-opacity="0"/>
</linearGradient>
<linearGradient id="paint5_linear" x1="254.5" y1="1012" x2="332.75" y2="1743" gradientUnits="userSpaceOnUse">
<stop stop-color="#330F16"/>
<stop offset="1" stop-color="#330F16" stop-opacity="0"/>
</linearGradient>
<linearGradient id="paint6_linear" x1="586.5" y1="1650.5" x2="379" y2="795.5" gradientUnits="userSpaceOnUse">
<stop stop-color="#330F16"/>
<stop offset="1" stop-color="#330F16" stop-opacity="0"/>
</linearGradient>
<linearGradient id="paint7_linear" x1="321" y1="786.5" x2="442" y2="865.5" gradientUnits="userSpaceOnUse">
<stop stop-color="#331017"/>
<stop offset="1" stop-color="#331017" stop-opacity="0"/>
</linearGradient>
</defs>
</svg>
