<svg width="800" height="804" viewBox="0 0 800 804" fill="none" xmlns="http://www.w3.org/2000/svg">
<g filter="url(#filter0_d)">
<path d="M249 556.038L283.058 532.623L284.059 529.569L286.063 522.443V511.754V501.573V489.866V475.613C286.063 470.319 287.064 464.585 287.565 462.379V441L335.646 457.289L386.232 482.23L442.327 465.942L502.428 442.527L510.942 446.09V450.671V459.834V468.487L511.944 477.14V487.83V503.609V513.281L518.455 523.97L536.986 532.623L545 570.8L530.475 633.918L492.411 686.347L381.724 695L271.538 614.066L249 556.038Z" fill="#D78F6E"/>
</g>
<g filter="url(#filter1_d)">
<path d="M270 383.5H267.5L257.5 382L254 379.5L251.5 375L249.5 369L248 363.5L249.5 359.5L248 351V339L246.5 330L245 320.5L243.5 310L241.5 302.5L240 298.5V294V289.5L241.5 284.5H246.5H251.5L260.5 291.5V187L296.5 106L494 111L540 177V239C540 239.8 537.333 257.333 536 266L537.5 281.5H541.5H544.5L548 285.5L549.5 290.5V298V305.5L548 314.5L546.5 321.5L544.5 328.5L541.5 339L540 346.5V355.5L537.5 360V369V375.5L536 381L533 383.5L528 386.5H522.5L513.5 410L494 462L459 505L406.5 528.5L359 522L331 496L306.5 462L288.5 426.5L278 402.5L274.5 391V386.5L272 383.5H270Z" fill="#D78F6E"/>
</g>
<g filter="url(#filter2_d)">
<path d="M266.5 337.5H269L268.5 332V327V320V312.5V306.5C269 304.167 270 299.3 270 298.5V292.5V286.5V282V275.5L271 267L270 261V255C269.833 253.833 269.8 250.5 271 246.5C272.5 241.5 271 241.5 272 239.5C272.8 237.9 271.667 234.833 271 233.5V226.5L272 218.5V210.5C272 209.5 273.5 203 273.5 202C273.5 201.2 274.167 196.667 274.5 194.5L275.5 186L276.5 179.5L280 166L283 158.5L287 150.5L289 145L292 141L299.5 133.5L301.5 128.5L309.5 124L314.5 121L323 117.5L329 121L337.5 124L345.5 127.5H353.5L366 129.5L370 131L378 133.5L384.5 137.5L388 141L396 142.5L402.5 141L408.5 138.5L415.5 137.5L423.5 134.5L429 135.5L439 137.5L447 134.5L455.5 133.5H463.5H472.5L481 134.5L490.5 135.5L496.5 138.5L504.5 142.5L507 146L511 150L514.5 155L517.5 160.5L520 167.5L524 177V182.5L526.5 188L529 197L527.5 207L530 214L531 223L530 233.5V241L529 249L527.5 254V264V273.5L526 279.5V290L525 301V309V316.5L526 326V331.5L525 338L523.5 342V345.5H526L527.5 339L529 331.5L530 326L529 318.5V314L530 303L531 296.5L535 291.5L537 286C538.333 284.667 541.1 281.8 541.5 281C541.9 280.2 543 278.333 543.5 277.5V270V264L544.5 257C544.667 255.167 545.2 251.3 546 250.5C546.8 249.7 546.333 245.833 546 244L547 238.5V233.5L549 227.5L550 220V210.5L551.5 204.5L552.5 196V191L553.5 184L551.5 178V169.5L549 164L546 157L543.5 150L540.5 144.5L538.5 138.5L535 135.5L533 129.5L528.5 126.5L526.5 120V115L527.5 110.5L524.5 108L521 104L515 100V94.5L511.5 90.5L507 88L503.5 84.5L502 80.5L503.5 75L500 73L495.5 69.5L491 67.5L482.5 63L477 59.5L468.5 55L462 53L456 49L449.5 46H442.5L435 48H427.5L420 49H417H410H404L396.5 50.5L387.5 53L378.5 55H366.5L356.5 56.5L347.5 58L338.5 64.5L331.5 69L325.5 75.5L321 79.5L316 83.5L309 88.5C306.833 91.5 302.3 97.7 301.5 98.5C300.7 99.3 296.833 101.5 295 102.5L289 107L284.5 112L278 119L271 127.5L264.5 135L257 145L253.5 152.5L251 157.5L249.5 164.5L246 172.5L244.5 184V193L246 201V208.5L247 214.5V225.5V233.5V241.5L249 255L251 262L252.5 268L254 278V283.5L255.5 288.5L258.5 295L261 298.5L263 302.5L265 310V317V321.5V330.5L266.5 336.5V337.5Z" fill="#311B0E"/>
</g>
<g filter="url(#filter3_d)">
<path d="M53.9313 698.5L44 722.5V724H767L764.021 714.5L762.034 707L758.558 698.5L753.593 688.5L747.137 678L737.206 665.5L734.227 660L723.302 650.5L710.888 638L695.991 630.5L688.046 628C684.239 625.5 676.625 619.9 676.625 617.5L662.225 611L657.755 604.5L651.797 599.5L640.872 592.5L624.486 582.5L614.058 576L597.671 569L581.284 560.5L570.856 556L561.918 549L550.001 540L534.111 531L520.703 525L522.69 529.5L529.145 534.5L532.621 540L535.104 549V556V564.5V569V576L532.621 584.5L529.145 592.5L525.669 599.5L520.703 607.5L517.724 617.5L512.758 624L505.31 630.5L498.854 638L490.909 646L484.951 653L479.488 660L470.054 665.5L459.626 668.5L451.681 673L444.729 676L437.777 680.5L428.342 683H417.418H407.983H399.045H389.113L378.685 680.5L368.258 678L359.319 673L349.388 665.5L341.94 662.5L331.015 656L325.056 653L314.132 640.5L307.18 634L302.214 628L294.766 617.5L288.31 610L280.862 602L279.372 592.5L274.407 580V571V560L279.372 546.5V540L283.841 529.5L274.407 534.5L261.992 540L249.082 546.5L233.192 554L218.295 560L198.432 571L183.038 580L167.645 592.5L153.741 605.5L138.844 617.5L123.451 628L106.071 640.5L92.6635 650L78.7596 664L68.3317 675.5L53.9313 698.5Z" fill="#252525"/>
</g>
<g filter="url(#filter4_d)">
<path d="M268.5 338H266L266.5 346.5V355L268.5 364.5L272.5 377L275 394L277 407L279 418V425.5L281 435L284.5 440L288.5 450.5L294.5 461L300.5 471L309.5 482L315 492.5L322.5 502.5L330 508.5L340 521.5L349.5 529.5L357.5 535L366.5 541.5H381.5H397.5H416H424.5L440.5 533.5L451 527.5L462 517.5L474 504.5L486 489.5L495 475.5L505 457.5L511.5 441.5L516.5 429.5L520 415.5L524.5 399.5L526 386V375.5V366.5V353.5V346.5L524.5 347L522 356.5V364.5L520 377L517.5 388L509 394L505 401.5L500.5 415.5L495 428L487.5 436.5L483 447.5L476.5 459.5L474 469L466 477L456.5 490L446.5 501.5C442.5 503.333 434.2 507 433 507C431.8 507 425.5 505.333 422.5 504.5L416 501.5L409.5 497H397.5H385.5L376.5 500L371 504.5L360 508.5L348 504.5L341.5 497L337 490L333 483.5L328 471L324 462.5L318.5 457.5V447.5L315 440L312 435L305 428L302.5 415.5L299 407L295 397L290.5 390L284.5 380.5L279 373.5L275 364.5L272.5 353.5L268.5 343.5V338Z" fill="#794D37"/>
<path d="M329 408.5L333 401.5L341.5 397L357.5 394.5L367.5 392.5L374 389.5H383L390.5 391L399 394.5L409.5 394L417.5 391L424.5 390H433H444.5L451 394L459.5 397L469.5 403.5L476.5 407L483 411.5L486 415.5L481 421H474L469.5 418H462L454.5 413H444.5L434.5 411.5H424.5H416H395H384.5L371 415.5H355H348L340 418L333 421L330 425.5L326 428L322.5 425.5L324 418L326 413L329 408.5Z" fill="#794D37"/>
<path d="M387 471L395 469H399H404.5H414L420 466H427V475.5L424.5 479.5L422.5 483.5L411.5 487.5L407.5 489.5H399L392 487.5L390.5 483.5L381.5 479.5L376.5 475.5C377.167 474 379.1 471 381.5 471H387Z" fill="#794D37"/>
</g>
<g filter="url(#filter5_d)">
<path d="M295.5 261.5L300 259L302 256.5H309H317.5H323.5L334 258.5H339.5L346.5 259L362 261.5L369 263.5H374.5L378 270L379.5 274L378 276L374.5 277L369 279L364.5 280H360.5L352.5 279L346.5 277H340.5L332 276L325.5 275L317.5 274L312 271.5H306.5L302 274L300 276L297 280L292.5 283L287.5 284H284V280L285.5 276V271.5L287.5 266.5L291.5 263.5L295.5 261.5Z" fill="#321908"/>
<path d="M440 268L446 266.5L453.5 269L461 266.5H466.5H470.5L481.5 264.5L487 263.5H495.5H501.5L505.5 266.5L510 269L514.5 271.5L517 277L519 281V283L517 286L514.5 287.5H509L505.5 286L499 281H493.5H489.5H482H474.5H468.5H461H449.5H445.5L440 279L436 280H432L430 279L432 274L436 271.5L440 268Z" fill="#321908"/>
</g>
<path d="M43 728.166L44 722.671L74 720.473L668.5 718L767 723.495V726.792V735.035L766 746.575V777.348L762 804H38V786.415V764.709V741.629L43 728.166Z" fill="#252525"/>
<defs>
<filter id="filter0_d" x="245" y="441" width="304" height="262" filterUnits="userSpaceOnUse" color-interpolation-filters="sRGB">
<feFlood flood-opacity="0" result="BackgroundImageFix"/>
<feColorMatrix in="SourceAlpha" type="matrix" values="0 0 0 0 0 0 0 0 0 0 0 0 0 0 0 0 0 0 127 0"/>
<feOffset dy="4"/>
<feGaussianBlur stdDeviation="2"/>
<feColorMatrix type="matrix" values="0 0 0 0 0 0 0 0 0 0 0 0 0 0 0 0 0 0 0.25 0"/>
<feBlend mode="normal" in2="BackgroundImageFix" result="effect1_dropShadow"/>
<feBlend mode="normal" in="SourceGraphic" in2="effect1_dropShadow" result="shape"/>
</filter>
<filter id="filter1_d" x="236" y="106" width="317.5" height="430.5" filterUnits="userSpaceOnUse" color-interpolation-filters="sRGB">
<feFlood flood-opacity="0" result="BackgroundImageFix"/>
<feColorMatrix in="SourceAlpha" type="matrix" values="0 0 0 0 0 0 0 0 0 0 0 0 0 0 0 0 0 0 127 0"/>
<feOffset dy="4"/>
<feGaussianBlur stdDeviation="2"/>
<feColorMatrix type="matrix" values="0 0 0 0 0 0 0 0 0 0 0 0 0 0 0 0 0 0 0.25 0"/>
<feBlend mode="normal" in2="BackgroundImageFix" result="effect1_dropShadow"/>
<feBlend mode="normal" in="SourceGraphic" in2="effect1_dropShadow" result="shape"/>
</filter>
<filter id="filter2_d" x="240.5" y="46" width="317" height="307.5" filterUnits="userSpaceOnUse" color-interpolation-filters="sRGB">
<feFlood flood-opacity="0" result="BackgroundImageFix"/>
<feColorMatrix in="SourceAlpha" type="matrix" values="0 0 0 0 0 0 0 0 0 0 0 0 0 0 0 0 0 0 127 0"/>
<feOffset dy="4"/>
<feGaussianBlur stdDeviation="2"/>
<feColorMatrix type="matrix" values="0 0 0 0 0 0 0 0 0 0 0 0 0 0 0 0 0 0 0.25 0"/>
<feBlend mode="normal" in2="BackgroundImageFix" result="effect1_dropShadow"/>
<feBlend mode="normal" in="SourceGraphic" in2="effect1_dropShadow" result="shape"/>
</filter>
<filter id="filter3_d" x="40" y="525" width="731" height="207" filterUnits="userSpaceOnUse" color-interpolation-filters="sRGB">
<feFlood flood-opacity="0" result="BackgroundImageFix"/>
<feColorMatrix in="SourceAlpha" type="matrix" values="0 0 0 0 0 0 0 0 0 0 0 0 0 0 0 0 0 0 127 0"/>
<feOffset dy="4"/>
<feGaussianBlur stdDeviation="2"/>
<feColorMatrix type="matrix" values="0 0 0 0 0 0 0 0 0 0 0 0 0 0 0 0 0 0 0.25 0"/>
<feBlend mode="normal" in2="BackgroundImageFix" result="effect1_dropShadow"/>
<feBlend mode="normal" in="SourceGraphic" in2="effect1_dropShadow" result="shape"/>
</filter>
<filter id="filter4_d" x="262" y="338" width="268" height="211.5" filterUnits="userSpaceOnUse" color-interpolation-filters="sRGB">
<feFlood flood-opacity="0" result="BackgroundImageFix"/>
<feColorMatrix in="SourceAlpha" type="matrix" values="0 0 0 0 0 0 0 0 0 0 0 0 0 0 0 0 0 0 127 0"/>
<feOffset dy="4"/>
<feGaussianBlur stdDeviation="2"/>
<feColorMatrix type="matrix" values="0 0 0 0 0 0 0 0 0 0 0 0 0 0 0 0 0 0 0.25 0"/>
<feBlend mode="normal" in2="BackgroundImageFix" result="effect1_dropShadow"/>
<feBlend mode="normal" in="SourceGraphic" in2="effect1_dropShadow" result="shape"/>
</filter>
<filter id="filter5_d" x="280" y="256.5" width="243" height="39" filterUnits="userSpaceOnUse" color-interpolation-filters="sRGB">
<feFlood flood-opacity="0" result="BackgroundImageFix"/>
<feColorMatrix in="SourceAlpha" type="matrix" values="0 0 0 0 0 0 0 0 0 0 0 0 0 0 0 0 0 0 127 0"/>
<feOffset dy="4"/>
<feGaussianBlur stdDeviation="2"/>
<feColorMatrix type="matrix" values="0 0 0 0 0 0 0 0 0 0 0 0 0 0 0 0 0 0 0.25 0"/>
<feBlend mode="normal" in2="BackgroundImageFix" result="effect1_dropShadow"/>
<feBlend mode="normal" in="SourceGraphic" in2="effect1_dropShadow" result="shape"/>
</filter>
</defs>
</svg>
