<svg width="1325" height="1728" viewBox="0 0 1325 1728" fill="none" xmlns="http://www.w3.org/2000/svg">
<path d="M275 580.5H268.5L264 582.5L268.5 593L295.5 608.5L322 614L349 618L370 622.5L403 626L441.5 631L465 636.5L488 642L509.5 652L521.5 662.5L531.5 671L542 676V664.5L544.5 654.5L547.5 645.5L550 637.5L553 631L555 622.5H558C557.333 622.667 558 622.4 566 620C576 617 573.5 616.5 581.5 612C587.9 608.4 592.167 604.167 593.5 602.5L600.5 594.5L603.5 585.5L608.5 578.5L612 572.5L615.5 566L621 559.5L624 553.5L627.5 549L631 542.5L633.5 535.5L638 530L640 524.5L642 520L644 513.5L647.5 506L650 498L652 492L658 479.5L663.5 467L667 458.5L669 450.5L670.5 446L673 439L675 432.5V430V425L675.5 418V413.5L675 409.5V405L674.5 402V392.5L675 391L676.5 390L677.5 389L678 388L680 381L681.5 377.5L683.5 375L684 372.5V369L702 357.5C702 357.333 702.5 356.4 704.5 354C706.5 351.6 708.333 349.333 709 348.5L710.5 344.5L709 339.5V334.5L707 327.5V321.5V314L708 306L709 295.5L711.5 287.5L712.5 281L714.5 270.5L716 258.5V247L714.5 236.5L712.5 228L709 217L707 206L702 196.5L699.5 190L696.5 183L694 177.5L695.5 172.5L697.5 165.5L702 163L705.5 158L707 151.5V145L704.5 136.5L697.5 129L694 123.5L687 115L681.5 112L685.5 107V102L678 99L670 90.5L665 83.5L653 73L647.5 66L642 59.5L640.5 50.5L631 44.5L629.5 38.5L623 36.5L621.5 31.5L613.5 33.5V24L598 26L595 16.5L578.5 19.5L570.5 12.5L562 15L554.5 7.5L543 10L536 7.5L527 10L521.5 4.5L514 7.5L500.5 5.5L490 2L483 5.5L470 7.5L465.5 12.5L454 15L446.5 12.5L435 10L425.5 12.5L414 10L410 20L399.5 22.5L393 29.5L381 33.5H368.5L362.5 36.5H350L345 43.5L335 51L329.5 60.5L322 67.5L321 75.5L313 89.5L303.5 94L299.5 104L297 110.5L290 120L293 129L294.5 136L290 144L284.5 149.5L283 158V171.5V178.5L279 188L280 199.5L279 212.5V222.5L278 240.5L280 251V266L282.5 279.5L284 293L285.5 306L291 316L293 323L294.5 331.5V342.5V350.5L297.5 359.5V368L300 377.5L302 387L305 396L307.5 405L312 410.5L319 426.5V438L321 448L325.5 462.5L330 467V477L328 490V503.5L325.5 513L319 527.5L313 538.5L305.5 549L297 557.5L290 567.5L280 578.5L275 580.5Z" stroke="white" stroke-width="3"/>
<path d="M691 372.5L684 368.5V372.5L683.5 375L681.5 377.5L680 381L681 384L680 390L678 388L677.5 389L676.5 390L675 391L674.5 392.5V395.5V398V402L675 405V409.5L675.5 413.5V418L675 425L682.5 428H698L703.5 426.5L707 423L710.5 421L717 414L725.5 398.5L725 396L723.5 392.5L710.5 385L691 372.5Z" stroke="white" stroke-width="3"/>
<path d="M723.5 369L658 336L655 353.5L684 369L688 371L694 375L700.5 379L706 382.5L712 386.5L718 390L723.5 393L725 396.5V398.5L722.5 403.5L719.5 409L717 413.5L713 417.5L710 421L707 422.5L703 426L697.5 427.5H691H687H682.5L679 426L675 424.5V431.5H677.5L687 433L696 434L706 433L713 429.5L717 426L719.5 422.5L733 403.5L739.5 391.5L742 384.5C742 384.5 742.524 381.888 741.5 380C740.333 377.85 736.5 376 736.5 376L729 372L723.5 369Z" stroke="white" stroke-width="3"/>
<path d="M407 516.498C405.553 510.856 403.5 501.998 403.5 501.998L411.5 501.498L419.5 500.998L432 506.998L443.5 502.998L446.5 502.498L456.5 502.998L472 500.498L485 499.498C488.167 500.832 493.4 502.498 497 502.498C500.6 502.498 517.833 495.832 525.5 493.498L525 487.998L528.5 476.998L531.5 458.998L533.5 446.5V439V428L535.5 421L541 404.5L550.5 393L558.5 388.5L569.5 387L572 380L575 371.5L579.5 362.5L593 347L607.5 337.5L617.5 336L623.5 337.5L628.5 350L632 365.5L630 378.5L633.5 391.5L630.5 396L629 401.5L624.5 406.5L621 414L618.5 424L615.5 434L612.5 440.5L607.5 453L603.5 461.5L600.5 472L597 478.5L592.5 490L587.5 512V520L582.5 534.5L579.5 545.5L578 555.5L574.5 563L570 571.5L566.5 576L562 585.5L558.5 597.5L556.5 609L555.5 618.5V622.5L553 631L551.5 634.5C551.5 634.5 548.915 642.705 547.5 645.999C544.749 652.402 542 666 542 666V674L521.5 663.499L508.5 652.499L491 645.999L476.5 637.999C476.5 637.999 469.405 635.427 465.5 632.498L455.5 624.998C455.5 624.998 449.92 617.944 447 612.998C444.025 607.96 443.074 604.753 440.5 599.499C437.427 593.225 435.468 589.823 432.5 583.499C430.049 578.276 428.558 575.388 426.5 569.998C423.878 563.132 423.973 558.72 421 551.998C418.453 546.24 415.543 543.759 413 537.998C409.48 530.024 409.165 524.942 407 516.498Z" stroke="white" stroke-width="3"/>
<path d="M583.5 457L571.5 440L570.5 437.5L569.5 430L568.5 423.5L568 417L567.5 408L569 398.5L569.5 393.5L572 383.5L573.5 378.5L576.5 371L579.5 364.5L583 359.5L588.5 353.5L595.5 346.5L600.5 342.5L605 340.5L607.5 339L614 336.5L620.5 338L625.5 342.5L627.5 350.5L628.5 356L627 360.5L624 367.5L623 369L621.5 372L620 375.5L618.5 377.5V380.5V384.5V393L618 396L616.5 400L615 403.5V408.5L614 412L613 413.5L611 417.5V419.5L612 423.5L613 427V430.5L612 434.5L610 438.5L607.5 442.5L605.5 447.5L604.5 452.5L603.5 456L601.5 460L598 462.5L594 463.5L589.5 462.5L586 460.5L583.5 457Z" stroke="white" stroke-width="3"/>
<path d="M355.5 479C357.019 482.175 356.21 484.826 358.5 487.5C361.834 491.393 365.907 490.926 371 491.5C373.91 491.828 375.678 490.718 378.5 491.5C381.632 492.368 382.934 494.006 385.5 496C387.574 497.612 390.5 500.5 390.5 500.5C390.5 500.5 393.955 502.877 396.5 503.5C400.711 504.531 407.5 502 407.5 502C407.5 502 415.042 500.554 419.5 502C422.749 503.054 423.732 505.505 427 506.5C430.923 507.694 433.6 507.767 437.5 506.5C439.827 505.744 440.673 504.256 443 503.5C446.9 502.233 449.399 503.5 453.5 503.5H461C461 503.5 475.649 499.164 485 500.5C489.408 501.13 492.5 503.5 496 503.5C499.5 503.5 509.5 500.5 509.5 500.5L523 496C528.272 494.243 524.41 490.784 525.5 487.5C526.882 483.335 529.5 477 529.5 477C529.5 477 530.311 469.368 531 464.5C531.526 460.781 531.761 458.683 532.5 455C533.013 452.446 533.621 451.077 534 448.5C534.681 443.863 534 441.186 534 436.5C534 433.766 533.704 432.218 534 429.5C534.462 425.26 535.777 423.086 537 419C537.761 416.456 538.077 414.99 539 412.5C540.427 408.651 543.5 403 543.5 403L550.5 394L558 389L569.5 386.5L572 382L574 375.5L577 369.5L580 363L585.5 356.5L587.5 354L592.5 349L598.5 343.5L603.5 341L608.5 338.5L613.5 337H619.5L623.5 338L625.5 343L626.5 346.5L628.5 350.5L629.5 355L630.5 360L631.5 365.5L629.5 379L632 387.5L634.5 394C636.167 395.333 640.3 398.6 643.5 401C646.7 403.4 648.5 402 649 401L654 398L657.5 394L660.5 389L662 383V376.5L663.5 365.5L664.5 361.5L663.5 359V350.5C663.5 346.9 665.833 346.333 667 346.5L672.5 343L673.5 337.5L675.5 325.5V316.5L681 311L686 305.5L692 294L696 282.5L698 274V263V253.5L694 242L692 228.5L688.5 217.5V205.5L690.5 196L694 188L697.5 179.5L703.5 170.5L710.5 162L722 159L717.5 152.5L718.5 144L707.5 142.5V134.5L702 123.5L694 120.5V112H681.5L685.5 107V102L677.5 98.5L677 93L670 90.5L669.5 85L666 84L665 79L660.5 77.5L659 72.5L653 73L649.5 64.5L642 59.5L640.5 50.5L631 44.5L629.5 38.5L623 36.5L621.5 31.5L613.5 33.5V24L598 26L595 16.5L579 19.5L570.5 12.5L562 15L554.5 7.5L543 10L536 7.5L527 10L521.5 4.5L514 7.5L500.5 5.5L490 2L483 5.5L470 7.5L465.5 12.5L454 15L451 14L444.5 12L435 10L425.5 12.5L414 10L410 20L399.5 22.5L393 29.5L381 33.5H368.5L362.5 36.5H350L345 43.5L335 51L329.5 60.5L322 67.5L321 75.5L313 89.5L303.5 94L297 110.5L290 120L293 129L294.5 136L290 144L284.5 149.5L283 157.715V178.5L279 188L280 199.5L279 210.5V219L278.5 227.5L277.5 240.5L279.5 249.5V253.5V265.5L280.5 269.5L281.5 276.5L282.5 281.5V283.5L283 287.5L285 302.5L285.5 306.5L290.5 315.5L292.5 322.5L294.5 331.828V350.5L295.5 354L297 359.5L297.5 368L299.5 376L300.5 380.5L301 383.5L302 387L303 389.5L305 396L307.5 405L312 410.5L319 426.5V438L321 448V452.5L323 460.5C323 460.5 325.655 464.289 328 466C331.194 468.331 333.587 468.933 337.5 469.5C340.205 469.892 341.832 468.904 344.5 469.5C348.259 470.339 350.555 471.524 353 474.5C354.276 476.053 354.633 477.186 355.5 479Z" stroke="white" stroke-width="3"/>
<path d="M627 360.5L624 367.5L622 366.5L621 362.5V357.5L620 352L616.5 349L613 346.5L608 347.5L603.5 348L598.5 352L593 358.5L590 362.5L587.5 367.5L585.5 373L583.5 377L582 382L580 388L577.5 396.5L576.5 404.5L575.5 413V421V425L579 434L582 439.5V444.5L585.5 450V455L583.5 457.5L580.5 452.5L577.5 449L575.5 446.5L573 443L571 439.5L569.5 434V430L568.5 425L568 421V417L567.5 413V408L568 403.5L569 398L569.5 393.5L570.5 388L571 386L572 383.5L572.5 381L573.5 378.5L574 376L575.5 373L576.5 371L577 368.5L579 365L580 363L582 360.5L583.5 358.5L585.5 356L587.5 354.5L589.5 352L591.5 350L593 348L595.5 346.5L597.5 344.5L600 342.5L602 341.5L605 340.5L607.5 338.5L610.5 337.5L614 336.5H617.5L620 337.5L622.5 339L624 340.5L625.5 342.5L626.5 345L627.5 347.5L628 350L628.5 353V356L627 360.5Z" stroke="white" stroke-width="3"/>
<path d="M608 402.5L611.5 400L614 402.5V406V411L611.5 413L608 414.5L607 411L608 406V402.5Z" stroke="white" stroke-width="3"/>
<path d="M595.5 371L593 377L591.5 381V387.28L595 385.5L597.5 381L599.5 378.5L600 376L599.5 372.5L598.5 370H597.5L595.5 371Z" stroke="white" stroke-width="3"/>
<path d="M610.5 354H614.5L618 357L616.5 360.5L612.5 365.5L607.5 368.5C606.667 368.833 604.6 369.3 603 368.5C601.4 367.7 602.333 365.5 603 364.5L605 360.5L607.5 357L610.5 354Z" stroke="white" stroke-width="3"/>
<path d="M595 397L596.5 393.5H598L601.5 392.5V395L603 397L604 399.5V403L603 406V408.5L601.5 411.5V412.5L598 418.5L595 420.5L591 421.5L588.5 420.5V415.5V410.5L591 407.5L593.5 404.5V401L595 397Z" stroke="white" stroke-width="3"/>
<path d="M884 1381.5L877.5 1378L785 1334.5L788.5 1319.5L780 1323V1311L779 1301V1294.5L777.5 1290L775 1283L803 1245.5L801.5 1241.5L800.5 1238L799.5 1236.5L797.5 1229.5L795 1222.5L793 1216.5L791 1210.5L788.5 1204.5L787.5 1200L787 1197.5L786 1192.5L785.5 1189.5L785 1184L784 1180.5L782 1172L780 1165.5L778.5 1161L777.5 1155.5L776.5 1149.5L776 1148L771 1134.5L769.5 1128.5L763.5 1115.5V1107.5V1097.5L762.5 1091V1082.5L761.5 1074.5V1061.5V1050.5L758 1039.5L756 1030.5L771 996.5L783.23 967.627L811 907L834.5 854L846.5 828L849.5 825.5L853 824.5L858 825.5L914 841.5L1013.5 869.5L1081 888.5L1171 914L1249.5 936L1307.5 953L1312.5 954L1317.5 956.5L1321.5 960L1323 963.5L1321.5 969.5L1311.5 993L1270 1089L1237 1165L1201.5 1247L1181.5 1295L1176 1304H1172L1169 1306L1147.5 1317.5L1140.5 1320.5L1123.5 1328.5L1114.5 1333.5L1108 1336.5L1048 1362.5L994.5 1386L964.5 1399L953 1403L945 1404.5H938L929.5 1401.5L919 1397L907.5 1392.5L899.5 1388.5L891.5 1384.5L884 1381.5Z" stroke="white" stroke-width="3"/>
<path d="M1175.5 1299.5L1174.5 1301L1173 1303.5L1170 1305.5L1150 1316.5L1138.5 1321L1114 1333.5L1099 1340L1071 1352.5L1037 1367L998 1384.5L983 1391L964.5 1399L961.5 1400L955 1402.5L947 1404L948 1401.5L950.5 1399L952.5 1397L1009.5 1370L1059 1345.5L1108 1322.5L1129.5 1312L1151.5 1300.5L1165.5 1294L1169 1293.5L1172 1294L1174 1294.5L1175.5 1296L1176 1298L1175.5 1299.5Z" stroke="white" stroke-width="3"/>
<path d="M932.5 1409L873.5 1386L879 1376L955 1402L954.5 1403L946.5 1407L942 1409H935.5H932.5Z" stroke="white" stroke-width="3"/>
<path d="M973.5 1322H976.5L979.5 1323L984.5 1322L989 1318.5L990.5 1316L978 1311L980.804 1309.5L998 1314H1000.5L1004 1313L1009.5 1309.5L1013.5 1311L1009.5 1314L1007 1317.5L1023 1325L1028.5 1324L1036.5 1319.5L1036 1317.5L1020 1309.5L1016 1308H1012.5L1009.5 1307L981.5 1298.5L983 1293.5L1015 1305.5H1018.5L1024.5 1301.5L1030.5 1303.5L1024.5 1307V1309.5L1041.5 1317.5L1044.5 1317L1054 1311L1052 1308L1036.5 1302L1028.5 1300.5L1027 1301.5V1299.5L1012.5 1293.5L1000.5 1288.5L997 1285.5H989L994 1281.5L1002.5 1275.5L1007 1279L999.5 1284L1002.5 1285.5L1018.5 1292.5L1033 1298.5L1036 1297.5L1044.5 1292.5L1049 1295L1046.5 1296L1044.5 1298.5L1042 1300.5L1059 1307L1063 1308L1071.5 1303.5V1301.5L1056.5 1295L1049 1292.5L1044.5 1291.5L1030.5 1285.5L1027 1284L1021 1282.5L1024.5 1280L1031.5 1282.5L1036 1284L1039.5 1285.5L1050.5 1290L1054 1288.5L1062 1284L1064.5 1281.5H1069.5L1073 1280L1075 1282.5L1069.5 1285.5H1064.5L1063 1286.5L1064.5 1288.5L1061 1290V1292.5L1077 1298.5L1081 1299.5L1089 1295V1291.5H1096.5L1105.5 1288.5V1291.5L1091 1298.5L1078 1305.5H1074L1073 1308L1062 1313H1056.5L1055.5 1316L1044.5 1321L1039.5 1322L1038 1324L1028.5 1329L1024.5 1330H1021V1332L1012.5 1337H1007H1001.5L999.5 1335L1001.5 1332L1005.5 1333.5H1009.5L1013.5 1332L1017.5 1329L1018.5 1326.5L1007 1323C1006.17 1321.5 1003.9 1318.5 1001.5 1318.5H997H993L994 1322L983 1328H976.5L973.5 1325V1322Z" stroke="white" stroke-width="3"/>
<path d="M1049 1270L1046.5 1268.5L1040.5 1270H1038L1032 1268L1027 1266.5L1025.5 1270L1030.5 1271.5L1039.5 1274.5L1044.5 1273L1049 1270Z" stroke="white" stroke-width="3"/>
<path d="M796 1181.5L789.5 1178.5H786L788.5 1202.5L789.5 1205L798 1228L800.5 1228.5L806.5 1233.5L815 1237L818.5 1234.5L825.5 1229.5H828.5L825.5 1227.5H824L822.5 1228L817 1232H815L807 1228L807.5 1227L813.5 1222L811.5 1221.5H808.5L798.5 1226.5L795 1214.5L803.5 1217.5L811.5 1220L817 1219.5L820 1217.5L824 1212L822 1210L821 1211L812.5 1215L809 1215.5L794.5 1210.5L793.5 1209L800.5 1203.5L802 1198.5L800 1199C799.333 1199 797.6 1199.6 796 1202C794.4 1204.4 791.667 1205 790.5 1205L789.5 1203.5V1200.5L791.5 1199L796 1197.5L800 1195L803 1192.5L804 1191L800 1189.5C798.167 1191 794.1 1194 792.5 1194H788.5L787 1181.5L789.5 1182.5L798 1184.5L803 1188L807.5 1191H810L827.5 1197.5C825.167 1198.5 820.2 1200.8 819 1202C817.8 1203.2 815.723 1202.5 814.834 1202L804 1199L802 1202L805 1203.5L819 1207L824.5 1203.5C825.5 1203.33 827.8 1202.5 829 1200.5C830.2 1198.5 832.5 1199.67 833.5 1200.5L850.5 1206C850.5 1206.67 849.7 1208.6 846.5 1211C843.3 1213.4 841.167 1213.33 840.5 1213L829 1208L824.5 1206L822.5 1208L825.5 1212L829 1213L846.5 1218L843 1220.5C841.5 1221.33 837.8 1223.4 835 1225C832.2 1226.6 831.167 1225.67 831 1225L823.5 1220.5C822.167 1219.67 819.1 1218.5 817.5 1220.5C815.9 1222.5 816.833 1223 817.5 1223L822.5 1225L831 1229H838.5L852.5 1220.5L856 1218L848 1215.5L854.5 1209.5L857 1208L864.5 1211L867.5 1208L866 1206L862.5 1208L854.5 1205V1200.5C854.5 1200.1 851.833 1201.33 850.5 1202L840.5 1199V1196L836 1197.5L831 1196L829 1194L830 1191H827.5L824.5 1192.5L815.5 1189.5V1186.5L812 1188L807.5 1186.5L803 1184.5V1181.5L800 1182.5L796 1181.5Z" stroke="white" stroke-width="3"/>
<path d="M821 901L849.5 837C849.5 837 850.036 834.361 851 833C851.638 832.098 851.985 831.435 853 831C854.077 830.538 854.872 830.682 856 831C872 835.5 915 848.5 915 848.5L1006.5 875L1096.5 900.5L1171 921L1239.5 939.5L1310.5 959.5L1313.5 961L1315 963L1316 965.5V968.5L1312.5 977.5L1268.5 1078.5L1226.5 1173L1177 1283.5L1175 1285L1173.5 1286H1169.5L1155 1282L1021.5 1236.5L860.5 1178.5L778 1151.5L767 1123.5L764 1112V1096.5L761 1071L761.5 1051L757 1045.5L774 1006.5L821 901Z" stroke="white" stroke-width="3"/>
<path d="M606.5 1333.5L603 1317.5L606.5 1316L614 1313.5L621 1313H634L648.5 1311.5L662 1308.5L676 1307L693 1304.5L706.5 1301.5L719 1298.5L732.5 1295L744.5 1292L755 1290L763 1288L770 1285.5L776 1283L777 1285L777.5 1288L778 1291L779 1294.5L779.5 1298.5L780 1301.5V1305.5L780.5 1310L781 1316.5V1322L787.5 1319L790.5 1317L795 1314L798 1311.5L800.5 1308.5L803.5 1304.5L807 1301L810.5 1297L813 1292L812.5 1288L812 1285.5L810.5 1283L809.5 1280L807.5 1277V1272.5L808.5 1270L809 1267.5L808.5 1264.5L807.5 1260.5L806.5 1257L805 1252V1249.5L805.5 1247L806.5 1245L808.5 1243L810.5 1240L814.5 1237L817 1234.5L822.5 1231.5L825.5 1229L829 1228.5H833L839 1227L843 1225.5L847.5 1223.5L851 1221L854 1218.5L857 1217L861 1214L864.5 1210.5L867 1207.5L870.5 1205L873 1202.5L877 1199.5L879.5 1197L883 1192.5L887.5 1189.5L891.5 1188L894.5 1187H898L901.5 1187.5L905.5 1190L908 1192.5L910 1196L912.5 1202L913.5 1209L916.5 1210.5L920 1208L922.5 1206.5L925.5 1202.5L929 1198.5L932.5 1195L936 1190.5L939 1188L943 1186.5H947.5L951.5 1188L955 1189.5L958 1193L961.5 1196.5L963.5 1202L964.5 1207V1210.5L966.5 1209L969.5 1208.5H973.5H978L981.5 1210.5L985 1214L989 1218.5L990.5 1223V1227L989.5 1231.5L989 1236L988 1239.5L986.5 1243.5V1247L989.5 1245.5H993H997L1001 1247L1003.5 1249L1006.5 1251.5L1008.5 1255.5L1009.5 1259V1263L1009 1266.5L1006.5 1270.5L1003.5 1273L1001 1275.5L997.5 1278L994 1280.5L990.5 1283.5L988 1286.5L986 1290.5L984 1293L982 1297.5L980 1302L976.5 1306.5L971 1312L966.5 1316.5L961 1321.5L956.5 1324.5L952 1327L947 1330L944 1331.5C942.667 1332.17 938.7 1333.9 933.5 1335.5C928.3 1337.1 927 1337.83 927 1338L920.5 1340L913.5 1340.5L909.5 1343L904 1347.5L897.5 1353L892.5 1357.5L885.5 1366.5L881.5 1372.5L879 1377L875 1382.5L873 1389L871 1394L867 1402.5L865 1407.5L862 1414L859.5 1419L856.5 1425.5L851 1434L847.5 1440L842 1448L837.5 1454L834 1458L830.5 1463L826.5 1466.5L822 1470.5L817.5 1475.5L812.5 1481L808 1484.5L800.5 1489.5L793.5 1495L789 1498C787.667 1498.83 784.2 1501.1 781 1503.5C777.8 1505.9 777.333 1506.83 777.5 1507L771.5 1511L767.5 1514L761.5 1516.5L756.5 1519.5L752 1521.5L746.5 1523L742.5 1525C740.833 1526 736.5 1528.3 732.5 1529.5C727.5 1531 729 1531 724 1531.5C720 1531.9 717.667 1533 717 1533.5H711.5L707 1532.5L702 1529.5L697 1526.5L692.5 1522.5L688 1518.5L684 1514L680.5 1510.5L677.5 1507L674.5 1503L671 1499.5L668 1494.5L664 1489C664 1489 661.671 1485.56 660 1483.5C658.52 1481.67 657.496 1480.81 656 1479C654.136 1476.74 652.823 1475.61 651.5 1473C650.384 1470.8 650.234 1469.36 649.5 1467C648.656 1464.29 648.449 1462.68 647.5 1460C646.508 1457.2 645.878 1455.64 644.5 1453C643.445 1450.98 642.406 1450.09 641.5 1448C640.689 1446.13 640 1443 640 1443L638 1434L634 1420L630.5 1407.5L625.5 1392.5L623.5 1385.5L621 1377.5L619 1371L615.5 1362L612.5 1353.5L610 1345L606.5 1333.5Z" stroke="white" stroke-width="3"/>
<path d="M781.5 1340.5L780.5 1333V1327V1322L787.5 1319L795 1314L799.5 1310L800.5 1312V1315.5C800.5 1316.67 799.5 1324.5 799.5 1324.5L798.5 1330.5L795 1340.5L781.5 1356V1349V1340.5Z" stroke="white" stroke-width="3"/>
<path d="M816.5 1289.5L813 1292L812.5 1288L812 1285.5L813.5 1286L816.5 1284.5V1280C817.333 1278.33 819.7 1276 822.5 1280V1283L819 1286L816.5 1289.5Z" stroke="white" stroke-width="3"/>
<path d="M958 1212.5C959.6 1210.9 959.156 1210.92 960 1210C960.559 1209.39 961.5 1208.5 961.5 1208.5C961.5 1208.5 962.527 1207.68 963 1207C963.6 1206.14 964 1204.5 964 1204.5C964 1204.5 964.403 1206.32 964.5 1207.5C964.596 1208.67 964.5 1210.5 964.5 1210.5L965.5 1209.5L963.5 1213L962.5 1214.5L960.5 1217C960.167 1217.5 958.645 1218.71 957.5 1221L956 1224L954.5 1226C954.5 1226 952.781 1226.67 952 1227.5C951.517 1228.01 951.453 1228.46 951 1229C950.645 1229.42 950.524 1229.82 950 1230C949.172 1230.28 948 1229 948 1229L947.5 1227.5C947.5 1227.5 947.337 1225.21 948 1224C948.53 1223.03 949.29 1222.85 950 1222C950.906 1220.92 951.219 1220.17 952 1219C952.391 1218.41 952.558 1218.05 953 1217.5C953.52 1216.85 954 1216.67 954.5 1216C955 1215.33 956.4 1214.1 958 1212.5Z" stroke="white" stroke-width="3"/>
<path d="M981 1239L983 1238.5L985.5 1236.5L989.5 1231.5L989 1236L988.5 1238L987.5 1240.5L986.5 1243.5V1247L985.5 1248L983 1250L981.5 1251.5L980.5 1253L979 1254.5L978 1255C977.5 1255.83 976 1257.8 974 1259C972 1260.2 971.5 1260.83 971.5 1261H970.5L969.5 1259.5L968 1257.5L969 1255L969.5 1253L970.5 1252L972.5 1250L974 1247.5L975 1245.5L977 1243L978.5 1241L981 1239Z" stroke="white" stroke-width="3"/>
<path d="M731 1292.5L656 1310L659.5 1315.5L662.5 1324.5L664.5 1331C665.333 1332.17 668.2 1337.5 673 1349.5C676.2 1356.7 676.667 1357.83 676.5 1357.5L678.5 1364L680 1370.5L682.5 1378C682.5 1378 683.102 1382.65 684 1385.5C685.313 1389.66 689 1395.5 689 1395.5L694 1408L697.5 1424.5C697.5 1424.5 697.278 1428.47 697.5 1431C697.869 1435.2 700 1441.5 700 1441.5C700 1441.5 701.555 1444.76 702 1447C702.571 1449.87 701.833 1453 702 1454.5C702.167 1456 703 1460.7 705 1467.5C707 1474.3 707.5 1476.5 707.5 1476.5L713 1496C713 1496 713.5 1506 714.5 1508C715.5 1510 718.14 1511.56 721 1513C723.205 1514.11 724.558 1514.63 727 1515C729.124 1515.32 730.352 1515 732.5 1515C735.624 1515 737.608 1516.18 740.5 1515C742.561 1514.16 745 1511.5 745 1511.5C747.333 1508.5 750.539 1498.73 756 1496C757 1495.5 761 1492 761 1492C761 1492 762.131 1489.63 762.5 1488C763.105 1485.33 763.148 1483.66 762.5 1481C761.69 1477.68 758 1473.5 758 1473.5C758 1473.5 756.634 1469.89 756 1467.5C755.135 1464.24 754.701 1462.36 754.5 1459C754.395 1457.25 754.62 1456.25 754.5 1454.5C754.211 1450.29 752 1444 752 1444C752 1444 750.082 1438.6 749.5 1435C748.659 1429.79 749.5 1421.5 749.5 1421.5C749.5 1421.5 748.223 1415.14 748 1411C747.863 1408.46 748.174 1407.03 748 1404.5C747.755 1400.94 747.059 1399.02 746.5 1395.5C745.881 1391.6 745 1385.5 745 1385.5V1381C745 1379.27 743.96 1374.71 743.041 1370.68L743 1370.5C742.147 1366.76 740.997 1364.8 740.5 1361C739.994 1357.13 740.5 1351 740.5 1351C740.5 1351 740.834 1346.11 740.5 1343C740.07 1339 738 1333 738 1333L735.5 1324.5L733.5 1315.5L731 1305V1292.5Z" stroke="white" stroke-width="3"/>
<path d="M911 1210L910.5 1207L910 1202.5L910.5 1197.23L912.5 1202L913.5 1209L915.5 1210L916.5 1210.5L913.5 1211L911 1210Z" stroke="white" stroke-width="3"/>
<path d="M525.5 925.5L525.896 927.157M525.896 927.157L531 948.5V973.5L541 1013C539.833 1009.67 538.2 1008.3 541 1029.5C544.2 1077.9 545 1108.33 545 1117.5V1146.5L553.5 1179.5V1216L563.5 1262.5L570 1297L580.5 1320H605.5L614 1314.5H631L657 1309H689L711.5 1301L738.5 1297L750.5 1292.5L765.5 1289L775.5 1285L781.5 1279L788 1269.5L797 1262.5L801.5 1248.5V1234L788 1195L784.5 1181L780 1160L776.5 1146.5L770.5 1134L767.5 1121.5L765 1113.5V1097.5L762 1073V1050L758 1036V1013L755.5 985.5V962L752 943V925.5L747 905L742.5 893L738.5 878.5L730.5 862L724.5 848L717.5 833.5L711.5 824L705 817.5L693.5 807.5L687 795.5L674 784.5L661 775L651 769.5L641 760.5L627 745L620 738L609.5 731L595 720L586 712L580.5 704L568.5 698L562.5 692L556.5 683L550.5 676.5L544 670L535 664L526.5 657.5L519.5 651.5L510.5 647.5L502 651.5L499 657.5V676.5V686L495 708.5V720L499 728.5V742.5L502 752.5L505.5 769.5V782L510.5 798.5V807.5L514.5 817.5L519.5 830V841.5V853.5V872.5L525.5 876L526.5 887V896V908L525.5 921.5L525.896 927.157Z" stroke="white" stroke-width="3"/>
<path d="M266.5 576.5L271 579L272 582.5L277 588L282 594.5L288.5 600.5L296 605L306.5 608.5L320.5 612L336.5 614L351 616L365 618L374 619L390 622.5L402 623L417 624.5L431 627L445.5 630L457 632.5L465.5 633.5L475.5 634L483.5 636.5L492 639.5L499 641L512 647.5L520 653.5L525 658.5L534.5 667L542.5 672.5C544 673.5 548.4 676.8 554 682C559.6 687.2 559.667 688.5 559 688.5L566.5 696.5L571.5 702L578.5 708L586.5 713.5L595.5 721L605.5 728.5L613 735L619 739.5L626.5 747L633 752.5L642.5 760.5L649.5 768L656.5 774.5L663 778L669.5 782L676.5 788.5L682.5 794.5L688.5 800.5L693.5 807L697.5 812.5L705.5 818L711.5 824L712.5 825.5L715 829.5L718.5 835.5L720 838.5L722 842.5L726.5 852.5L729.5 859.5L731.5 864L734.5 870L738.5 878.5L740 884L747 905L752 925.5V938V943L755.5 962V968.5V979.5V985.5L756 990.5L756.5 996.5L758 1012.97V1018V1027V1030.7V1036L759 1039L760.5 1044.5L762 1050V1053V1062.5V1068.5V1073L762.5 1077L763.5 1085L764 1089.5L765 1097.5V1104.5V1109.5V1113.5L766.5 1117.5L768 1123.5L770 1130L772 1136L776 1145L782 1158.5L784 1165.5L786.5 1175L789 1185L790 1193L791.5 1201L795.5 1212.5L798.5 1221L801 1228L804 1237.5L807.5 1247.5L811 1258L812.5 1265L813.5 1269L810 1271.5L803.5 1275.5L794.5 1280L781.5 1284.5L770.5 1289L760 1291.5L750.5 1293.5L736.5 1297L725.5 1300.5L714.5 1303L703.5 1305.5L688.5 1308L677.5 1309.5L663 1312L652 1314L640.5 1315.5H628H620.5L607 1319L604.5 1321L608 1336L613.5 1353L619.5 1369.5L624.5 1388.5L629.5 1404.5L630 1416.5V1463L633 1489.5V1521.5L635 1542L636.5 1566V1587.5L639 1610.5V1637.5L640 1645.5L639 1670L641.5 1698.5L640 1717.5L641.5 1726.5H2.5L2 1659L4 1637.5L13.5 1619.5V1602.5L13 1578L8.5 1557V1542.5V1530.5L13 1516L16.5 1483L22.5 1454.5L24.5 1419.5L26 1380.5L30.5 1344L32.5 1321L38 1282L39.5 1249L41 1210.5L42.5 1173L44.5 1135L38.5 1098L35 1076L30.5 1063L23.5 1052L19 1040.5L12.5 1000.5L14 972L17 952L20.5 930L18.5 911L11 880L10.5 863.5L11.5 852.5L17.5 834.5L25 807.5L33.5 784L43 758.5L57.5 735L70 717.5L86.5 696L104 679L116.5 664.5L126 656.5L141.5 647L151 636.5L156.5 631.5L160.5 627L165.5 621.5L174.5 614.5L182.5 610.5L190 608L199 606.5L206.5 602L215.5 599.5L221.5 598L226 595.5L230 592.5L235 589L238 587L241 585.5L244 584L248.5 582.5L253.5 580.5L257 578.5L261.5 577L266.5 576.5Z" stroke="white" stroke-width="3"/>
<path d="M15 1501.5L16 1498L19 1490.5L22 1486L24.5 1476L28.5 1468.5V1459L32 1449.5L34.5 1438.5L32 1427V1415.5V1402.5L34.5 1390V1380L38 1370L40.5 1360L42.5 1351.5V1342L40.5 1331.5V1323V1310V1301.5L42.5 1288L45.5 1277.5V1265V1253V1246L48.5 1240L53 1235.5L56 1221.5L53 1208.5V1197.5V1185.5V1175L56 1163.5V1147.5L53 1127V1111.5L56 1098L59.5 1088.5V1078V1068.5L58 1061V1050V1029.5V1017L59.5 1008.5L62 999.5V989.5L65 982V973L68.5 962.5L72 953.5L79 942.5V936V922.5L81 912.5L85.5 906L88.5 898.5L91 890.5L98 880.5L104.5 872L108 864.5L117.5 851.5L119.5 846.5L123.5 839.5L129.5 831.5L132.5 817.5L140 806.5L146.5 797.5L148.5 788L160.5 774.5L166 761.5L171.5 757.5L182.5 747.5L192.5 735L215.5 711.5L230 692.5L245.5 680L259.5 669.5H269L275 677.5L278 692.5L259.5 721.5L234.5 761.5L222.5 774.5L213 795V803.5L215.5 817.5V825.5L198.5 878L192.5 922.5L187.5 920L182.5 900.5L180 875L172.5 843.5L166 839.5L160.5 845.5L155.5 850.5L148.5 860L140 868L137.5 875L140 884.5L137.5 894L132.5 900.5L127 912.5L123.5 934L119.5 948.5L117.5 958.5L115 966C114.167 967.667 112.2 972 111 976C109.8 980 109.833 991 110 996L108.5 1003.5L109.5 1011.5L111 1034V1044.5L112 1063.5V1075L113 1086.5V1095V1101.5L114 1114L115.5 1121L116.5 1146L115.5 1157V1177V1183L118.5 1202L120.5 1210.5L121.5 1225L120.5 1231.5V1244L117 1257L114.5 1267.5L112 1282L110 1290L107 1301.5V1315L105 1323L104 1331.5V1339.5V1350L100 1370V1378L97 1388V1405.5L95.5 1415.5L93.5 1422L89 1438.5L86.5 1447V1453.5L85 1462L83 1471.5L80 1490.5L78.5 1501.5L77 1511.5L74.5 1521L71.5 1528.5L68.5 1535.5L63.5 1540.5L59.5 1541.5L52 1544H47L42 1545C39.8333 1545.5 33.4 1546.2 25 1545C21 1543.8 21.3333 1542.83 22 1542.5L19 1539L16 1535.5L15 1531.5L14 1528.5V1521V1517.5L15 1511.5V1506V1501.5Z" stroke="white" stroke-width="3"/>
<path d="M278 989.5L285.5 958.5L291 956.5L295.5 961L302 968.5L303 987.5L304 1004.5L305 1019.5V1035.5L306 1054.5L306.5 1069L307 1086L308 1095V1110.5V1132.5V1143L311 1176.5L314 1198V1217.5V1241L316 1261.5L320 1280.5L321 1302.5L323 1323L326.5 1340.5L329 1357.5L331.5 1383L333 1402.5V1420L337.5 1441V1461.5V1487.5L344 1504.5V1533V1547V1568.5L348.5 1606C352 1614.33 359 1634.2 359 1647C359 1659.8 373.667 1668.67 381 1671.5L404.5 1684.5C406.667 1686.67 417.5 1709 417.5 1709L421 1718.5L422.5 1724.5V1726.5H328.5L312 1719.5L302 1709L291 1697.5L282 1691L276 1684.5L267.5 1677.5L266 1671.5V1665.5L262.5 1655L260.5 1647L259 1641.5L257 1631L255.5 1619.5L251.5 1611.5V1598V1582L248 1568.5L247 1547L248 1533L249.5 1496.5L251 1461.5V1420V1398L256.5 1363.5V1322.5V1288.5L260.5 1248.5V1221L265 1148V1118L270 1084V1060.5L274.5 1040V1012L278 989.5Z" stroke="white" stroke-width="3"/>
<path d="M221 1142V1155L218.5 1169.5V1187.5L215 1195.5V1211V1230L211 1242.5V1257.5V1273L207.5 1292.5V1319.5L202.5 1336V1348.5C203.333 1354 204.5 1368.1 202.5 1380.5C200.5 1392.9 199.667 1407.33 199.5 1413L196 1427.5L193.5 1453L190.5 1466L188 1479.5L185 1499V1515.5V1532.5L188.5 1553V1564.5V1584.5L180 1592.5H169C166.833 1591.5 160.7 1589.3 153.5 1588.5C146.3 1587.7 147.833 1582.17 149.5 1579.5C149 1574.5 147.6 1562.2 146 1553C144.4 1543.8 145.333 1539.17 146 1538V1524.5L153.5 1507V1493V1483.5L160.5 1466L162.5 1446L165 1431.5V1416.5L167 1400.5L171.5 1385L175 1365V1358L179.5 1340.5L184.5 1325L188 1292.5L190.5 1279.5V1261.5L193 1248V1230V1218.5V1204.5L195.5 1185.5L197.5 1169.5L202 1151.5L208 1135.5L211 1121L215 1110.5H221L223 1124.5L221 1142Z" stroke="white" stroke-width="3"/>
<path d="M363 1183.5L363 1137.5L357 1097V1066.5H365L375.5 1097L407.5 1143L425.5 1171L448 1187L462 1184L474 1172.5L476.5 1155.5L474 1137.5V1125.5V1110L463 1097V1082L457 1066.5L451.5 1050.5L445 1035.5V1026.5C443.333 1021 440 1003.4 440 976.999C440 964.199 443.333 958.666 445 957.499L451.5 946.499L463 936.499L468 923.999L474 901.5L484 887.5L492 895.5L502 909L512 925.999L522 946.499L524 967.499L522 992.999V1010L528 1035.5L535.5 1059.5L543.5 1089V1114.5L549.5 1143L557 1171L564 1199L566 1219.5L568 1234L570.5 1254.5L575 1272.5L577.5 1291.5L582 1308.5L584 1315.5L589 1316.5H603L605 1324L609 1339.5L614.5 1356L620 1371L626 1394.5V1445.5V1462L627.5 1474.5L628.5 1483.5L629 1488L630 1494.5V1499.5L626 1517.5V1533L617 1545.5L610 1560.5L601.5 1574.5L590.5 1591L579 1603.5L567.5 1617.5L553 1634L541 1641.5C532.833 1643.17 508.4 1647.4 476 1651C455.6 1654.6 458.5 1652.5 462.5 1651L443 1638.5L428.5 1629C425 1623.83 415.9 1609.7 407.5 1594.5C405.9 1586.1 402.167 1580.33 400.5 1578.5L395 1565.5L389 1545.5L386 1526V1514V1499.5L389 1487.5L391.5 1469.5V1444.5L395 1421L391.5 1401V1385.5L386 1358.5C385.667 1354.67 384.6 1338.5 383 1304.5C383 1286.1 378 1275.5 375.5 1272.5V1257.5L365 1234V1217.5C364.333 1214.17 363 1205.2 363 1196V1183.5Z" stroke="white" stroke-width="3"/>
<path d="M314 921V903.5L319.5 894.5V872V851.5L325.5 838L330 823L334.5 807.5L341.5 791.5L355 779.5L362.5 772L379 767L385 761L392.5 750H403.5H415.5L424 755L431.5 772L424 791.5L409.5 813.5L392.5 834L379 845.5L362.5 872L355 894.5L345.5 912.5L334.5 933.5L324 946.5L318.5 950L315.5 941.5L314 921Z" stroke="white" stroke-width="3"/>
<path d="M630.5 396L629 401.5L624.5 406.5L621 414L618.5 424L615.5 434L612 441.5L607.5 453L603.5 461.5L600.5 472L597 478.5L592.5 490L590 502L587.5 512V520L582.5 534.5L579.5 545.5L578 555.5L574 564L570 571.5L566.5 576L564.5 580.5L562 585.5L558.5 597.5L557.5 603L556.5 609L556 614.5L555.5 618.5V622.5H558L561.5 621.5L569 619L574 617L578 614.5L585 610L594 602.5L600.5 594.5L603.5 586L610.5 575.5L615.5 566.5L621 560L624.5 553L627.5 549L631.5 542L633.5 536L638 531L641 522.5L642 520L644 513.5L647.5 506.5L649 502L652.5 491.5L654.5 487.5L656.5 484L659 478.5L660.5 474.5L658.5 472.5L655 469.5L652 458.5L649.5 450.5V437.5L648 430.5V419.5V411.5V401.5L642.5 400L639.5 397.5L636 395L633.5 391.5L632 393.5L630.5 396Z" stroke="white" stroke-width="3"/>
<path d="M709 334L708 330.5L707 331.5L706 333L705 335.5V337.5V339.5L705.5 343.5L705 347L703.5 349.5C703.167 349.833 702.5 351 702.5 353C702.5 355 703.833 354.5 704.5 354L705.5 352.5L707 351.5L708.5 349.5L709.5 348L710.5 346V343.5L709.5 339.5C709.1 337.9 709.333 337.833 709.5 338L709 336V334Z" stroke="white" stroke-width="3"/>
<path d="M680.5 381.5L680 380L677.5 384V386.5L679 390.5L681.5 391.5V389V386.5V384L680.5 381.5Z" stroke="white" stroke-width="3"/>
<path d="M379 349.5L376.5 332L371 310L352 281.5L345 255L339.5 233.5L331 215L322.5 193.5L312 169.5L303 161.5L294.5 152.5L284 150L283 157.5V178.5L279 188L280 199.5L279 210.5V219L277.5 240.5L279.5 249.5V266L280.5 269.5L281.5 276.5L282.5 281.5V283.5L283.5 291.5L284.5 299.5L285.5 306.5L290.5 315.5L292.5 322.5L294.5 332V350.5L297 359.5L297.5 368L301 383.5L302 387L307.5 405L312 410.5L319 426.5V438L321 448V452.5L323 460.5L325.5 463.5L328 466L330.5 467.5L333 468.5L336.5 469.5H339.5H341.5H343.5H344.5L346.5 470L349.5 471.5L351 472.5L353 474.5L355 478L356 480.5L357 484.5L358 487L360.5 489.5L364.5 491L370.5 491.5H373.5L376.5 491L381 492.5L383.5 494.5L388.5 498.5L390.5 500.5L394 502.5L396.5 503.5L398.5 504L401.5 503.5L404 503L405.5 494.5L406 485.5C406 485.5 408.58 477.669 408.5 472.5C408.426 467.714 406 460.5 406 460.5L402.5 446.5L387.5 424L380 406L375 379.5L376.5 368L379 349.5Z" stroke="white" stroke-width="3"/>
</svg>
