<svg width="551" height="1310" viewBox="0 0 551 1310" fill="none" xmlns="http://www.w3.org/2000/svg">
<path d="M447.792 949.307L443.907 950.382L431.923 955.659L429.48 959.52V966.508L431.7 972.959L433.365 976.184L438.359 979.947H447.792L459.444 976.184L464.438 974.034L466.658 965.97V960.595L464.438 955.757L460.554 951.457L453.34 950.382L447.792 949.307Z" fill="white"/>
<path fill-rule="evenodd" clip-rule="evenodd" d="M248.033 1150.89L258.576 1205.18C261.35 1219.69 267.676 1249.69 270.783 1253.56C273.71 1257.2 278.841 1272.75 281.905 1282.03C282.908 1285.07 283.69 1287.44 284.101 1288.5C285.897 1293.14 294.089 1307.85 295.753 1307.85C294.422 1309.14 301.487 1309.82 305.186 1310L312.4 1306.77L317.949 1301.4V1292.8L315.174 1284.2L312.4 1268.07L301.857 1234.74L292.979 1196.58L284.101 1161.1L278.552 1121.32L271.893 1064.34L266.344 1006.82L263.57 968.121V884.263L282.436 878.888L322.943 872.438L342.918 869.75L364.559 867.6L381.205 863.299L398.407 857.924L410.059 853.086L423.932 847.173C430.22 843.768 442.465 837.067 441.133 837.497C439.801 837.927 450.196 831.584 455.56 828.359L470.542 817.608L483.859 806.319L491.627 795.568V788.043L489.963 781.592L483.859 779.442H479.975L472.761 781.592L465.548 788.043L460.554 793.956L453.895 799.331L445.572 803.632L435.584 809.007L427.261 813.845L417.828 817.608L407.285 821.908L391.748 826.746L382.315 829.434L370.108 832.121L358.455 834.272L342.918 837.497L328.491 839.647L314.619 842.872L296.308 845.023L277.442 848.785L266.899 851.473L257.466 853.086L259.686 799.331L261.905 754.715V628.929L260.241 590.763V581.625L300.747 569.261L325.717 562.273L344.028 555.285L363.449 545.072L381.76 535.934L401.736 525.72L420.602 511.744L440.578 495.618L461.109 471.428L479.975 447.776L493.292 426.274L509.384 402.085L522.701 378.432L532.689 354.78L537.128 334.354L542.677 305.326L548.78 274.686L551 245.659V222.544L546.561 194.592L539.902 170.402L531.024 147.288L519.372 119.873L509.939 101.596L498.841 80.6319L478.865 56.9799L458.889 37.6282L438.913 19.3517L416.163 5.37546L398.407 0H376.766L360.12 2.15018L340.699 9.13828L321.278 16.6639L304.631 32.2528L295.198 41.9286L278.552 60.7427L267.454 77.9442L255.247 103.746L246.369 129.549L238.045 157.501L233.051 179.54L225.838 217.169L221.954 251.034L219.734 277.374L216.96 313.389V421.436L218.624 456.377L221.399 492.93L224.728 525.72V545.072L214.74 552.06L189.216 555.285L163.691 557.435L119.3 560.123L89.8912 566.036L61.0373 570.874L33.8479 574.099L16.0916 577.862L1.66465 581.625L0 588.613C0.554884 590.046 1.66465 593.236 1.66465 594.526C1.66465 595.816 4.62403 599.006 6.10373 600.439L12.2075 607.965L16.0916 609.577H32.1833L57.1531 605.815L98.7694 598.826L139.276 594.526L182.557 588.613L219.734 582.162L224.728 581.625V727.838L223.063 778.367L220.844 812.77V862.762L219.179 867.6L194.764 872.438L169.795 881.576L155.368 889.101L152.593 896.09L154.258 902.002L155.368 908.453L158.142 911.141L165.91 912.753L182.002 911.141L207.527 902.002L223.063 898.24L225.283 948.769L228.057 985.86L231.387 1024.56L234.716 1071.33L248.033 1150.89ZM257 541L253 483.5L249 416V342.5V305.5L257 252.5L261 202L270.5 157.5L280 130L287 103.5L298 81.5L310.5 63L325 49L341.5 36L361.5 30.5H374.5H386L401 36L418.5 44L432 59L444 74L457 90.5L470.5 110.5L482 134.5L489.5 153.5L498 174L503.5 192L507.5 216.5L511 235V259.5L507.5 287L503.5 312L498 342.5L489.5 363L477 383.5L463 408.5L449 430.5L432 454L408.5 477L386 495L361.5 507.5L332.5 523.5L310.5 532.5L280 541H257Z" fill="white"/>
</svg>
